<?xml version="1.0" encoding="UTF-8" standalone="no"?>
<!-- Created with Inkscape (http://www.inkscape.org/) -->
<svg
   xmlns:svg="http://www.w3.org/2000/svg"
   xmlns="http://www.w3.org/2000/svg"
   version="1.0"
   width="700pt"
   height="322pt"
   viewBox="0 0 287 132"
   id="svg2">
  <defs
     id="defs318" />
  <path
     d="M 137.3,34.5 L 147.8,34.5 L 147.8,46.5 L 137.3,46.5 L 137.3,34.5 z"
     id="path29"
     style="opacity:0;fill:#000000;fill-rule:evenodd;stroke:none" />
  <path
     d="M 137.3,34.5 L 147.8,34.5 L 147.8,46.5 L 137.3,46.5 L 137.3,34.5 z"
     id="path31"
     style="opacity:0;fill:none;stroke:#000000;stroke-width:0.80000001;stroke-linecap:butt;stroke-linejoin:miter;stroke-miterlimit:10" />
  <path
     d="M 154.5,4.5 L 165,4.5 L 165,16.5 L 154.5,16.5 L 154.5,4.5 z"
     id="path33"
     style="opacity:0;fill:#000000;fill-rule:evenodd;stroke:none" />
  <path
     d="M 154.5,4.5 L 165,4.5 L 165,16.5 L 154.5,16.5 L 154.5,4.5 z"
     id="path35"
     style="opacity:0;fill:none;stroke:#000000;stroke-width:0.80000001;stroke-linecap:butt;stroke-linejoin:miter;stroke-miterlimit:10" />
  <path
     d="M 159.9,31.3 L 148.5,37.9"
     id="path69"
     style="fill:none;stroke:#000000;stroke-width:0.80000001;stroke-linecap:butt;stroke-linejoin:round;stroke-miterlimit:10" />
  <path
     d="M 177,41.3 L 159.9,31.3"
     id="path99"
     style="fill:none;stroke:#000000;stroke-width:0.80000001;stroke-linecap:round;stroke-linejoin:round;stroke-miterlimit:10" />
  <path
     d="M 108.3,41.3 L 91.1,31.3"
     id="path115"
     style="fill:none;stroke:#000000;stroke-width:0.80000001;stroke-linecap:round;stroke-linejoin:round;stroke-miterlimit:10" />
  <g
     id="g2869">
    <path
       d="M 177.6,44.1 L 176.5,44.1"
       id="path123"
       style="fill:none;stroke:#000000;stroke-width:0.80000001;stroke-linecap:butt;stroke-linejoin:round;stroke-miterlimit:10" />
    <path
       d="M 177.8,46.9 L 176.2,46.9"
       id="path125"
       style="fill:none;stroke:#000000;stroke-width:0.80000001;stroke-linecap:butt;stroke-linejoin:round;stroke-miterlimit:10" />
    <path
       d="M 178.1,49.8 L 176,49.8"
       id="path127"
       style="fill:none;stroke:#000000;stroke-width:0.80000001;stroke-linecap:butt;stroke-linejoin:round;stroke-miterlimit:10" />
    <path
       d="M 178.3,52.6 L 175.8,52.6"
       id="path129"
       style="fill:none;stroke:#000000;stroke-width:0.80000001;stroke-linecap:butt;stroke-linejoin:round;stroke-miterlimit:10" />
    <path
       d="M 178.5,55.4 L 175.6,55.4"
       id="path131"
       style="fill:none;stroke:#000000;stroke-width:0.80000001;stroke-linecap:butt;stroke-linejoin:round;stroke-miterlimit:10" />
    <path
       d="M 178.7,58.3 L 175.4,58.3"
       id="path133"
       style="fill:none;stroke:#000000;stroke-width:0.80000001;stroke-linecap:butt;stroke-linejoin:round;stroke-miterlimit:10" />
    <path
       d="M 178.9,61.1 L 175.2,61.1"
       id="path135"
       style="fill:none;stroke:#000000;stroke-width:0.80000001;stroke-linecap:butt;stroke-linejoin:round;stroke-miterlimit:10" />
  </g>
  <path
     d="M 177.05319,41.321246 L 194.06869,32.207739"
     id="path137"
     style="fill:none;stroke:#000000;stroke-width:0.77614313;stroke-linecap:round;stroke-linejoin:round;stroke-miterlimit:10" />
  <path
     d="M 200.1,119.8 L 194,100.9"
     id="path47"
     style="fill:none;stroke:#000000;stroke-width:0.80000001;stroke-linecap:round;stroke-linejoin:round;stroke-miterlimit:10" />
  <path
     d="M 226.1,100.9 L 220,119.8"
     id="path145"
     style="fill:none;stroke:#000000;stroke-width:0.80000001;stroke-linecap:round;stroke-linejoin:round;stroke-miterlimit:10" />
  <path
     d="M 220,119.8 L 200.1,119.8"
     id="path149"
     style="fill:none;stroke:#000000;stroke-width:0.80000001;stroke-linecap:round;stroke-linejoin:round;stroke-miterlimit:10" />
  <path
     d="M 136.5,37.7 L 125.5,31.3"
     id="path153"
     style="fill:none;stroke:#000000;stroke-width:0.80000001;stroke-linecap:butt;stroke-linejoin:round;stroke-miterlimit:10" />
  <path
     d="M 200.3,13.3 L 220.2,13.3"
     id="path71"
     style="fill:none;stroke:#000000;stroke-width:0.80000001;stroke-linecap:round;stroke-linejoin:round;stroke-miterlimit:10" />
  <path
     d="M 220.2,13.3 L 226.3,32.2"
     id="path83"
     style="fill:none;stroke:#000000;stroke-width:0.80000001;stroke-linecap:round;stroke-linejoin:round;stroke-miterlimit:10" />
  <path
     d="M 194.2,32.2 L 200.3,13.3"
     id="path155"
     style="fill:none;stroke:#000000;stroke-width:0.80000001;stroke-linecap:round;stroke-linejoin:round;stroke-miterlimit:10" />
  <g
     transform="translate(-5.4671203e-2,0.6279146)"
     id="g2973">
    <path
       d="M 158.4,31.3 L 158.4,17.3"
       id="path157"
       style="fill:none;stroke:#000000;stroke-width:0.80000001;stroke-linecap:butt;stroke-linejoin:round;stroke-miterlimit:10" />
    <path
       d="M 161.4,31.3 L 161.4,17.3"
       id="path159"
       style="fill:none;stroke:#000000;stroke-width:0.80000001;stroke-linecap:butt;stroke-linejoin:round;stroke-miterlimit:10" />
  </g>
  <path
     d="M 125.5,31.3 L 108.3,41.3"
     id="path181"
     style="fill:none;stroke:#000000;stroke-width:0.80000001;stroke-linecap:round;stroke-linejoin:round;stroke-miterlimit:10" />
  <g
     id="g2860">
    <path
       d="M 124.9,28.5 L 126.1,28.5"
       id="path189"
       style="fill:none;stroke:#000000;stroke-width:0.80000001;stroke-linecap:butt;stroke-linejoin:round;stroke-miterlimit:10" />
    <path
       d="M 124.7,25.7 L 126.3,25.7"
       id="path191"
       style="fill:none;stroke:#000000;stroke-width:0.80000001;stroke-linecap:butt;stroke-linejoin:round;stroke-miterlimit:10" />
    <path
       d="M 124.5,22.8 L 126.5,22.8"
       id="path193"
       style="fill:none;stroke:#000000;stroke-width:0.80000001;stroke-linecap:butt;stroke-linejoin:round;stroke-miterlimit:10" />
    <path
       d="M 124.3,20 L 126.7,20"
       id="path195"
       style="fill:none;stroke:#000000;stroke-width:0.80000001;stroke-linecap:butt;stroke-linejoin:round;stroke-miterlimit:10" />
    <path
       d="M 124,17.2 L 126.9,17.2"
       id="path197"
       style="fill:none;stroke:#000000;stroke-width:0.80000001;stroke-linecap:butt;stroke-linejoin:round;stroke-miterlimit:10" />
    <path
       d="M 123.8,14.3 L 127.2,14.3"
       id="path199"
       style="fill:none;stroke:#000000;stroke-width:0.80000001;stroke-linecap:butt;stroke-linejoin:round;stroke-miterlimit:10" />
    <path
       d="M 123.6,11.5 L 127.4,11.5"
       id="path201"
       style="fill:none;stroke:#000000;stroke-width:0.80000001;stroke-linecap:butt;stroke-linejoin:round;stroke-miterlimit:10" />
  </g>
  <path
     d="M 120,114 L 130.5,114 L 130.5,127.5 L 120,127.5 L 120,114 z"
     id="path215"
     style="opacity:0;fill:none;stroke:#000000;stroke-width:0.80000001;stroke-linecap:butt;stroke-linejoin:miter;stroke-miterlimit:10" />
  <path
     d="M 119.88951,113.00563 L 130.38951,113.00563 L 130.38951,125.00563 L 119.88951,125.00563 L 119.88951,113.00563 z"
     id="path9"
     style="opacity:0;fill:#000000;fill-rule:evenodd;stroke:none" />
  <path
     d="M 119.88951,113.00563 L 130.38951,113.00563 L 130.38951,125.00563 L 119.88951,125.00563 L 119.88951,113.00563 z"
     id="path11"
     style="opacity:0;fill:none;stroke:#000000;stroke-width:0.80000001;stroke-linecap:butt;stroke-linejoin:miter;stroke-miterlimit:10" />
  <path
     d="M 137.18951,83.805631 L 147.68951,83.805631 L 147.68951,95.805631 L 137.18951,95.805631 L 137.18951,83.805631 z"
     id="path13"
     style="opacity:0;fill:#000000;fill-rule:evenodd;stroke:none" />
  <path
     d="M 137.18951,83.805631 L 147.68951,83.805631 L 147.68951,95.805631 L 137.18951,95.805631 L 137.18951,83.805631 z"
     id="path15"
     style="opacity:0;fill:none;stroke:#000000;stroke-width:0.80000001;stroke-linecap:butt;stroke-linejoin:miter;stroke-miterlimit:10" />
  <path
     d="M 108.08951,90.405631 L 90.989515,100.30563"
     id="path63"
     style="fill:none;stroke:#000000;stroke-width:0.80000001;stroke-linecap:round;stroke-linejoin:round;stroke-miterlimit:10" />
  <path
     d="M 159.68951,100.30563 L 176.88951,90.405631"
     id="path67"
     style="fill:none;stroke:#000000;stroke-width:0.80000001;stroke-linecap:round;stroke-linejoin:round;stroke-miterlimit:10" />
  <path
     d="M 159.68951,100.30563 L 148.38951,93.805631"
     id="path81"
     style="fill:none;stroke:#000000;stroke-width:0.80000001;stroke-linecap:butt;stroke-linejoin:round;stroke-miterlimit:10" />
  <g
     transform="translate(-0.1104854,-0.9943689)"
     id="g2896">
    <path
       d="M 107.6,88.5 L 108.8,88.5"
       id="path85"
       style="fill:none;stroke:#000000;stroke-width:0.80000001;stroke-linecap:butt;stroke-linejoin:round;stroke-miterlimit:10" />
    <path
       d="M 107.4,85.7 L 109,85.7"
       id="path87"
       style="fill:none;stroke:#000000;stroke-width:0.80000001;stroke-linecap:butt;stroke-linejoin:round;stroke-miterlimit:10" />
    <path
       d="M 107.2,82.8 L 109.3,82.8"
       id="path89"
       style="fill:none;stroke:#000000;stroke-width:0.80000001;stroke-linecap:butt;stroke-linejoin:round;stroke-miterlimit:10" />
    <path
       d="M 107,80 L 109.5,80"
       id="path91"
       style="fill:none;stroke:#000000;stroke-width:0.80000001;stroke-linecap:butt;stroke-linejoin:round;stroke-miterlimit:10" />
    <path
       d="M 106.8,77.2 L 109.7,77.2"
       id="path93"
       style="fill:none;stroke:#000000;stroke-width:0.80000001;stroke-linecap:butt;stroke-linejoin:round;stroke-miterlimit:10" />
    <path
       d="M 106.6,74.3 L 109.9,74.3"
       id="path95"
       style="fill:none;stroke:#000000;stroke-width:0.80000001;stroke-linecap:butt;stroke-linejoin:round;stroke-miterlimit:10" />
    <path
       d="M 106.4,71.5 L 110.1,71.5"
       id="path97"
       style="fill:none;stroke:#000000;stroke-width:0.80000001;stroke-linecap:butt;stroke-linejoin:round;stroke-miterlimit:10" />
  </g>
  <path
     d="M 136.38951,93.905631 L 125.28951,100.30563"
     id="path103"
     style="fill:none;stroke:#000000;stroke-width:0.80000001;stroke-linecap:butt;stroke-linejoin:round;stroke-miterlimit:10" />
  <g
     transform="translate(-0.1657281,-1.7677669)"
     id="g3027">
    <path
       d="M 126.9,101.3 L 126.9,113.3"
       id="path107"
       style="fill:none;stroke:#000000;stroke-width:0.80000001;stroke-linecap:butt;stroke-linejoin:round;stroke-miterlimit:10" />
    <path
       d="M 123.9,101.3 L 123.9,113.3"
       id="path109"
       style="fill:none;stroke:#000000;stroke-width:0.80000001;stroke-linecap:butt;stroke-linejoin:round;stroke-miterlimit:10" />
  </g>
  <path
     d="M 125.28951,100.30563 L 108.08951,90.405631"
     id="path139"
     style="fill:none;stroke:#000000;stroke-width:0.80000001;stroke-linecap:round;stroke-linejoin:round;stroke-miterlimit:10" />
  <g
     transform="translate(-0.1104854,-0.9943689)"
     id="g2887">
    <path
       d="M 160.4,104.1 L 159.2,104.1"
       id="path165"
       style="fill:none;stroke:#000000;stroke-width:0.80000001;stroke-linecap:butt;stroke-linejoin:round;stroke-miterlimit:10" />
    <path
       d="M 160.6,106.9 L 159,106.9"
       id="path167"
       style="fill:none;stroke:#000000;stroke-width:0.80000001;stroke-linecap:butt;stroke-linejoin:round;stroke-miterlimit:10" />
    <path
       d="M 160.8,109.8 L 158.8,109.8"
       id="path169"
       style="fill:none;stroke:#000000;stroke-width:0.80000001;stroke-linecap:butt;stroke-linejoin:round;stroke-miterlimit:10" />
    <path
       d="M 161,112.6 L 158.6,112.6"
       id="path171"
       style="fill:none;stroke:#000000;stroke-width:0.80000001;stroke-linecap:butt;stroke-linejoin:round;stroke-miterlimit:10" />
    <path
       d="M 161.2,115.4 L 158.3,115.4"
       id="path173"
       style="fill:none;stroke:#000000;stroke-width:0.80000001;stroke-linecap:butt;stroke-linejoin:round;stroke-miterlimit:10" />
    <path
       d="M 161.5,118.3 L 158.1,118.3"
       id="path175"
       style="fill:none;stroke:#000000;stroke-width:0.80000001;stroke-linecap:butt;stroke-linejoin:round;stroke-miterlimit:10" />
    <path
       d="M 161.7,121.1 L 157.9,121.1"
       id="path177"
       style="fill:none;stroke:#000000;stroke-width:0.80000001;stroke-linecap:butt;stroke-linejoin:round;stroke-miterlimit:10" />
  </g>
  <path
     d="M 176.94754,90.421011 L 193.79156,100.91525"
     id="path179"
     style="fill:none;stroke:#000000;stroke-width:0.80000001;stroke-linecap:round;stroke-linejoin:round;stroke-miterlimit:10" />
  <path
     d="M 121.03427,118.04212 C 121.03427,116.54212 121.43427,115.44212 122.23427,114.64212 C 123.03427,113.74212 124.03427,113.34212 125.23427,113.34212 C 126.03427,113.34212 126.83427,113.54212 127.43427,113.94212 C 128.13427,114.34212 128.63427,114.84212 128.93427,115.54212 C 129.23427,116.24212 129.43427,117.04212 129.43427,117.94212 C 129.43427,118.84212 129.23427,119.64212 128.93427,120.34212 C 128.53427,121.04212 128.03427,121.54212 127.33427,121.94212 C 126.73427,122.24212 126.03427,122.44212 125.23427,122.44212 C 124.43427,122.44212 123.63427,122.24212 123.03427,121.84212 C 122.33427,121.44212 121.83427,120.94212 121.53427,120.24212 C 121.23427,119.54212 121.03427,118.84212 121.03427,118.04212 z M 122.23427,118.04212 C 122.23427,119.14212 122.53427,119.94212 123.13427,120.54212 C 123.63427,121.14212 124.33427,121.44212 125.23427,121.44212 C 126.13427,121.44212 126.83427,121.14212 127.43427,120.54212 C 127.93427,119.94212 128.23427,119.04212 128.23427,117.94212 C 128.23427,117.24212 128.13427,116.54212 127.93427,116.04212 C 127.63427,115.54212 127.33427,115.14212 126.83427,114.84212 C 126.33427,114.54212 125.83427,114.34212 125.23427,114.34212 C 124.43427,114.34212 123.73427,114.64212 123.13427,115.24212 C 122.53427,115.74212 122.23427,116.74212 122.23427,118.04212 z"
     id="path211"
     style="fill:#000000;fill-rule:evenodd;stroke:none" />
  <path
     d="M 119.88951,113.00563 L 130.38951,113.00563 L 130.38951,126.50563 L 119.88951,126.50563 L 119.88951,113.00563 z"
     id="path213"
     style="opacity:0;fill:#000000;fill-rule:evenodd;stroke:none" />
  <path
     d="M 137.78951,90.705631 C 137.78951,89.305631 138.18951,88.105631 138.98951,87.305631 C 139.78951,86.505631 140.78951,86.105631 142.08951,86.105631 C 142.88951,86.105631 143.58951,86.305631 144.28951,86.605631 C 144.88951,87.005631 145.38951,87.605631 145.78951,88.305631 C 146.08951,89.005631 146.28951,89.705631 146.28951,90.605631 C 146.28951,91.505631 146.08951,92.305631 145.68951,93.005631 C 145.38951,93.705631 144.88951,94.305631 144.18951,94.605631 C 143.48951,95.005631 142.78951,95.205631 142.08951,95.205631 C 141.18951,95.205631 140.48951,95.005631 139.78951,94.605631 C 139.18951,94.205631 138.68951,93.605631 138.38951,92.905631 C 137.98951,92.205631 137.78951,91.505631 137.78951,90.705631 z M 138.98951,90.805631 C 138.98951,91.805631 139.28951,92.605631 139.88951,93.305631 C 140.48951,93.905631 141.18951,94.205631 142.08951,94.205631 C 142.88951,94.205631 143.68951,93.905631 144.18951,93.305631 C 144.78951,92.605631 145.08951,91.805631 145.08951,90.605631 C 145.08951,89.905631 144.88951,89.305631 144.68951,88.705631 C 144.48951,88.205631 144.08951,87.805631 143.58951,87.505631 C 143.18951,87.205631 142.68951,87.105631 142.08951,87.105631 C 141.18951,87.105631 140.48951,87.305631 139.88951,87.905631 C 139.28951,88.505631 138.98951,89.405631 138.98951,90.805631 z"
     id="path217"
     style="fill:#000000;fill-rule:evenodd;stroke:none" />
  <path
     d="M 137.18951,83.805631 L 147.68951,83.805631 L 147.68951,97.305631 L 137.18951,97.305631 L 137.18951,83.805631 z"
     id="path219"
     style="opacity:0;fill:#000000;fill-rule:evenodd;stroke:none" />
  <path
     d="M 137.18951,83.805631 L 147.68951,83.805631 L 147.68951,97.305631 L 137.18951,97.305631 L 137.18951,83.805631 z"
     id="path221"
     style="opacity:0;fill:none;stroke:#000000;stroke-width:0.80000001;stroke-linecap:butt;stroke-linejoin:miter;stroke-miterlimit:10" />
  <path
     d="M 271.15806,77.3 L 281.65806,77.3 L 281.65806,89.3 L 271.15806,89.3 L 271.15806,77.3 z"
     id="path17"
     style="opacity:0;fill:#000000;fill-rule:evenodd;stroke:none" />
  <path
     d="M 271.15806,77.3 L 281.65806,77.3 L 281.65806,89.3 L 271.15806,89.3 L 271.15806,77.3 z"
     id="path19"
     style="opacity:0;fill:none;stroke:#000000;stroke-width:0.80000001;stroke-linecap:butt;stroke-linejoin:miter;stroke-miterlimit:10" />
  <g
     transform="translate(-0.4419418,0)"
     id="g2878">
    <path
       d="M 248.7,103.1 L 247.6,103.7"
       id="path49"
       style="fill:none;stroke:#000000;stroke-width:0.80000001;stroke-linecap:butt;stroke-linejoin:round;stroke-miterlimit:10" />
    <path
       d="M 250.3,105.5 L 248.9,106.3"
       id="path51"
       style="fill:none;stroke:#000000;stroke-width:0.80000001;stroke-linecap:butt;stroke-linejoin:round;stroke-miterlimit:10" />
    <path
       d="M 251.9,107.8 L 250.1,108.9"
       id="path53"
       style="fill:none;stroke:#000000;stroke-width:0.80000001;stroke-linecap:butt;stroke-linejoin:round;stroke-miterlimit:10" />
    <path
       d="M 253.5,110.2 L 251.3,111.4"
       id="path55"
       style="fill:none;stroke:#000000;stroke-width:0.80000001;stroke-linecap:butt;stroke-linejoin:round;stroke-miterlimit:10" />
    <path
       d="M 255.1,112.5 L 252.6,114"
       id="path57"
       style="fill:none;stroke:#000000;stroke-width:0.80000001;stroke-linecap:butt;stroke-linejoin:round;stroke-miterlimit:10" />
    <path
       d="M 256.7,114.9 L 253.8,116.5"
       id="path59"
       style="fill:none;stroke:#000000;stroke-width:0.80000001;stroke-linecap:butt;stroke-linejoin:round;stroke-miterlimit:10" />
    <path
       d="M 258.3,117.2 L 255,119.1"
       id="path61"
       style="fill:none;stroke:#000000;stroke-width:0.80000001;stroke-linecap:butt;stroke-linejoin:round;stroke-miterlimit:10" />
  </g>
  <path
     d="M 226.45806,101 L 246.25806,101"
     id="path73"
     style="fill:none;stroke:#000000;stroke-width:0.80000001;stroke-linecap:round;stroke-linejoin:round;stroke-miterlimit:10" />
  <path
     d="M 246.25806,101 L 256.25806,83.8"
     id="path75"
     style="fill:none;stroke:#000000;stroke-width:0.80000001;stroke-linecap:round;stroke-linejoin:round;stroke-miterlimit:10" />
  <path
     d="M 246.25806,32.3 L 226.45806,32.3"
     id="path79"
     style="fill:none;stroke:#000000;stroke-width:0.80000001;stroke-linecap:round;stroke-linejoin:round;stroke-miterlimit:10" />
  <path
     d="M 256.25806,49.4 L 246.25806,32.3"
     id="path117"
     style="fill:none;stroke:#000000;stroke-width:0.80000001;stroke-linecap:round;stroke-linejoin:round;stroke-miterlimit:10" />
  <g
     transform="translate(-1.0792365,-9.0582236e-2)"
     id="g2977">
    <path
       d="M 256.7,82.3 L 270.8,82.3"
       id="path183"
       style="fill:none;stroke:#000000;stroke-width:0.80000001;stroke-linecap:butt;stroke-linejoin:round;stroke-miterlimit:10" />
    <path
       d="M 256.7,85.3 L 270.8,85.3"
       id="path185"
       style="fill:none;stroke:#000000;stroke-width:0.80000001;stroke-linecap:butt;stroke-linejoin:round;stroke-miterlimit:10" />
  </g>
  <path
     d="M 256.25806,49.1 L 276.05806,47.6 L 276.05806,51.3 L 256.25806,49.8 L 256.25806,49.1 z"
     id="path187"
     style="fill:#000000;fill-rule:evenodd;stroke:none" />
  <path
     d="M 271.75806,83.759418 C 271.75806,82.359418 272.15806,81.159418 272.95806,80.359418 C 273.75806,79.559418 274.75806,79.159418 275.95806,79.159418 C 276.85806,79.159418 277.55806,79.259418 278.15806,79.659418 C 278.85806,80.059418 279.35806,80.659418 279.65806,81.359418 C 280.05806,82.059418 280.25806,82.759418 280.25806,83.659418 C 280.25806,84.559418 280.05806,85.359418 279.65806,86.059418 C 279.35806,86.759418 278.75806,87.359418 278.15806,87.659418 C 277.45806,88.059418 276.75806,88.259418 275.95806,88.259418 C 275.15806,88.259418 274.45806,88.059418 273.75806,87.659418 C 273.15806,87.259418 272.65806,86.659418 272.25806,85.959418 C 271.95806,85.259418 271.75806,84.559418 271.75806,83.759418 z M 272.95806,83.759418 C 272.95806,84.859418 273.25806,85.659418 273.85806,86.359418 C 274.45806,86.959418 275.15806,87.259418 275.95806,87.259418 C 276.85806,87.259418 277.55806,86.959418 278.15806,86.259418 C 278.75806,85.659418 279.05806,84.859418 279.05806,83.659418 C 279.05806,82.959418 278.85806,82.359418 278.65806,81.759418 C 278.35806,81.259418 278.05806,80.859418 277.55806,80.559418 C 277.15806,80.259418 276.55806,80.159418 276.05806,80.159418 C 275.15806,80.159418 274.45806,80.359418 273.85806,80.959418 C 273.25806,81.559418 272.95806,82.459418 272.95806,83.759418 z"
     id="path223"
     style="fill:#000000;fill-rule:evenodd;stroke:none" />
  <path
     d="M 271.15806,77.3 L 281.65806,77.3 L 281.65806,90.8 L 271.15806,90.8 L 271.15806,77.3 z"
     id="path225"
     style="opacity:0;fill:#000000;fill-rule:evenodd;stroke:none" />
  <path
     d="M 271.15806,77.3 L 281.65806,77.3 L 281.65806,90.8 L 271.15806,90.8 L 271.15806,77.3 z"
     id="path227"
     style="opacity:0;fill:none;stroke:#000000;stroke-width:0.80000001;stroke-linecap:butt;stroke-linejoin:miter;stroke-miterlimit:10" />
  <path
     d="M 137.9,41.5 C 137.9,40 138.3,38.9 139.1,38 C 139.9,37.2 140.9,36.8 142.2,36.8 C 143,36.8 143.7,37 144.4,37.4 C 145,37.8 145.5,38.3 145.9,39 C 146.2,39.7 146.4,40.5 146.4,41.4 C 146.4,42.3 146.2,43.1 145.8,43.8 C 145.5,44.5 145,45 144.3,45.4 C 143.6,45.7 142.9,45.9 142.2,45.9 C 141.3,45.9 140.6,45.7 139.9,45.3 C 139.3,44.9 138.8,44.4 138.5,43.7 C 138.1,43 137.9,42.2 137.9,41.5 z M 139.1,41.5 C 139.1,42.6 139.4,43.4 140,44 C 140.6,44.6 141.3,44.9 142.2,44.9 C 143,44.9 143.8,44.6 144.3,44 C 144.9,43.4 145.2,42.5 145.2,41.4 C 145.2,40.6 145,40 144.8,39.5 C 144.6,38.9 144.2,38.5 143.7,38.2 C 143.3,37.9 142.8,37.8 142.2,37.8 C 141.3,37.8 140.6,38.1 140,38.6 C 139.4,39.2 139.1,40.2 139.1,41.5 z"
     id="path241"
     style="fill:#000000;fill-rule:evenodd;stroke:none" />
  <path
     d="M 137.3,34.5 L 147.8,34.5 L 147.8,48 L 137.3,48 L 137.3,34.5 z"
     id="path243"
     style="opacity:0;fill:#000000;fill-rule:evenodd;stroke:none" />
  <path
     d="M 137.3,34.5 L 147.8,34.5 L 147.8,48 L 137.3,48 L 137.3,34.5 z"
     id="path245"
     style="opacity:0;fill:none;stroke:#000000;stroke-width:0.80000001;stroke-linecap:butt;stroke-linejoin:miter;stroke-miterlimit:10" />
  <path
     d="M 155.64533,11.809268 C 155.64533,10.309268 156.04533,9.2092672 156.84533,8.3092672 C 157.64533,7.5092672 158.64533,7.1092672 159.84533,7.1092672 C 160.64533,7.1092672 161.44533,7.3092672 162.04533,7.7092672 C 162.74533,8.1092672 163.24533,8.6092672 163.54533,9.3092672 C 163.94533,10.009267 164.04533,10.809268 164.04533,11.709268 C 164.04533,12.609268 163.84533,13.409268 163.54533,14.109268 C 163.14533,14.809268 162.64533,15.309268 162.04533,15.709268 C 161.34533,16.009268 160.64533,16.209268 159.84533,16.209268 C 159.04533,16.209268 158.24533,16.009268 157.64533,15.609268 C 156.94533,15.209268 156.44533,14.709268 156.14533,14.009268 C 155.84533,13.309268 155.64533,12.509268 155.64533,11.809268 z M 156.84533,11.809268 C 156.84533,12.809268 157.14533,13.709268 157.74533,14.309268 C 158.24533,14.909268 158.94533,15.209268 159.84533,15.209268 C 160.74533,15.209268 161.44533,14.909268 162.04533,14.309268 C 162.54533,13.709268 162.84533,12.809268 162.84533,11.709268 C 162.84533,10.909268 162.74533,10.309268 162.54533,9.8092672 C 162.24533,9.2092672 161.94533,8.8092672 161.44533,8.5092672 C 160.94533,8.2092672 160.44533,8.1092672 159.84533,8.1092672 C 159.04533,8.1092672 158.34533,8.4092672 157.74533,8.9092672 C 157.14533,9.5092672 156.84533,10.509268 156.84533,11.809268 z"
     id="path247"
     style="fill:#000000;fill-rule:evenodd;stroke:none" />
  <path
     d="M 154.5,4.5 L 165,4.5 L 165,18 L 154.5,18 L 154.5,4.5 z"
     id="path249"
     style="opacity:0;fill:#000000;fill-rule:evenodd;stroke:none" />
  <path
     d="M 154.5,4.5 L 165,4.5 L 165,18 L 154.5,18 L 154.5,4.5 z"
     id="path251"
     style="opacity:0;fill:none;stroke:#000000;stroke-width:0.80000001;stroke-linecap:butt;stroke-linejoin:miter;stroke-miterlimit:10" />
  <path
     d="M 84.863901,12.526832 L 90.963901,31.426832"
     id="path45"
     style="fill:none;stroke:#000000;stroke-width:0.80000001;stroke-linecap:round;stroke-linejoin:round;stroke-miterlimit:10" />
  <path
     d="M 58.863901,31.426832 L 65.063901,12.526832"
     id="path101"
     style="fill:none;stroke:#000000;stroke-width:0.80000001;stroke-linecap:round;stroke-linejoin:round;stroke-miterlimit:10" />
  <path
     d="M 65.063901,12.526832 L 84.863901,12.526832"
     id="path119"
     style="fill:none;stroke:#000000;stroke-width:0.80000001;stroke-linecap:round;stroke-linejoin:round;stroke-miterlimit:10" />
  <path
     d="M 84.789515,119.1 L 64.989515,119.1"
     id="path105"
     style="fill:none;stroke:#000000;stroke-width:0.80000001;stroke-linecap:round;stroke-linejoin:round;stroke-miterlimit:10" />
  <path
     d="M 64.989515,119.1 L 58.889515,100.2"
     id="path161"
     style="fill:none;stroke:#000000;stroke-width:0.80000001;stroke-linecap:round;stroke-linejoin:round;stroke-miterlimit:10" />
  <path
     d="M 90.989515,100.2 L 84.789515,119.1"
     id="path163"
     style="fill:none;stroke:#000000;stroke-width:0.80000001;stroke-linecap:round;stroke-linejoin:round;stroke-miterlimit:10" />
  <path
     d="M 4.0626301,42.143945 L 14.56263,42.143945 L 14.56263,54.143945 L 4.0626301,54.143945 L 4.0626301,42.143945 z"
     id="path269"
     style="opacity:0;fill:#000000;fill-rule:evenodd;stroke:none" />
  <path
     d="M 4.0626301,42.143945 L 14.56263,42.143945 L 14.56263,54.143945 L 4.0626301,54.143945 L 4.0626301,42.143945 z"
     id="path271"
     style="opacity:0;fill:none;stroke:#000000;stroke-width:0.80000001;stroke-linecap:butt;stroke-linejoin:miter;stroke-miterlimit:10" />
  <path
     d="M 38.76263,100.14395 L 28.86263,82.943945"
     id="path273"
     style="fill:none;stroke:#000000;stroke-width:0.80000001;stroke-linecap:round;stroke-linejoin:round;stroke-miterlimit:10" />
  <path
     d="M 28.86263,48.643945 L 38.76263,31.443945"
     id="path275"
     style="fill:none;stroke:#000000;stroke-width:0.80000001;stroke-linecap:round;stroke-linejoin:round;stroke-miterlimit:10" />
  <path
     d="M 28.86263,83.343945 L 8.9626301,84.843945 L 8.9626301,81.143945 L 28.86263,82.643945 L 28.86263,83.343945 z"
     id="path277"
     style="fill:#000000;fill-rule:evenodd;stroke:none" />
  <g
     transform="translate(0.6560549,-5.4671241e-2)"
     id="g2981">
    <path
       d="M 28.86263,50.143945 L 15.36263,50.143945"
       id="path281"
       style="fill:none;stroke:#000000;stroke-width:0.80000001;stroke-linecap:butt;stroke-linejoin:round;stroke-miterlimit:10" />
    <path
       d="M 28.86263,47.143945 L 15.36263,47.143945"
       id="path283"
       style="fill:none;stroke:#000000;stroke-width:0.80000001;stroke-linecap:butt;stroke-linejoin:round;stroke-miterlimit:10" />
  </g>
  <path
     d="M 38.76263,100.14395 L 58.56263,100.14395"
     id="path287"
     style="fill:none;stroke:#000000;stroke-width:0.80000001;stroke-linecap:round;stroke-linejoin:round;stroke-miterlimit:10" />
  <path
     d="M 38.76263,31.443945 L 58.56263,31.443945"
     id="path289"
     style="fill:none;stroke:#000000;stroke-width:0.80000001;stroke-linecap:round;stroke-linejoin:round;stroke-miterlimit:10" />
  <g
     transform="translate(-0.4373699,-0.6560549)"
     id="g2851">
    <path
       d="M 37.3,29.9 L 38.3,29.3"
       id="path291"
       style="fill:none;stroke:#000000;stroke-width:0.80000001;stroke-linecap:butt;stroke-linejoin:round;stroke-miterlimit:10" />
    <path
       d="M 35.7,27.6 L 37,26.8"
       id="path293"
       style="fill:none;stroke:#000000;stroke-width:0.80000001;stroke-linecap:butt;stroke-linejoin:round;stroke-miterlimit:10" />
    <path
       d="M 34,25.2 L 35.8,24.2"
       id="path295"
       style="fill:none;stroke:#000000;stroke-width:0.80000001;stroke-linecap:butt;stroke-linejoin:round;stroke-miterlimit:10" />
    <path
       d="M 32.4,22.9 L 34.6,21.6"
       id="path297"
       style="fill:none;stroke:#000000;stroke-width:0.80000001;stroke-linecap:butt;stroke-linejoin:round;stroke-miterlimit:10" />
    <path
       d="M 30.8,20.5 L 33.3,19.1"
       id="path299"
       style="fill:none;stroke:#000000;stroke-width:0.80000001;stroke-linecap:butt;stroke-linejoin:round;stroke-miterlimit:10" />
    <path
       d="M 29.2,18.2 L 32.1,16.5"
       id="path301"
       style="fill:none;stroke:#000000;stroke-width:0.80000001;stroke-linecap:butt;stroke-linejoin:round;stroke-miterlimit:10" />
    <path
       d="M 27.6,15.8 L 30.9,14"
       id="path303"
       style="fill:none;stroke:#000000;stroke-width:0.80000001;stroke-linecap:butt;stroke-linejoin:round;stroke-miterlimit:10" />
  </g>
  <path
     d="M 4.7626301,48.689274 C 4.7626301,47.289274 5.1626301,46.089274 5.8626301,45.289274 C 6.6626301,44.489274 7.6626301,43.989274 8.9626301,43.989274 C 9.7626301,43.989274 10.46263,44.189274 11.16263,44.589274 C 11.76263,44.989274 12.26263,45.589274 12.66263,46.289274 C 12.96263,46.989274 13.16263,47.689274 13.16263,48.589274 C 13.16263,49.489274 12.96263,50.289274 12.56263,50.989274 C 12.26263,51.689274 11.76263,52.289274 11.06263,52.589274 C 10.46263,52.989274 9.6626301,53.189274 8.9626301,53.189274 C 8.0626301,53.189274 7.3626301,52.989274 6.7626301,52.589274 C 6.0626301,52.189274 5.5626301,51.589274 5.2626301,50.889274 C 4.8626301,50.189274 4.7626301,49.489274 4.7626301,48.689274 z M 5.9626301,48.689274 C 5.9626301,49.789274 6.2626301,50.589274 6.7626301,51.189274 C 7.3626301,51.889274 8.0626301,52.189274 8.9626301,52.189274 C 9.7626301,52.189274 10.56263,51.889274 11.06263,51.189274 C 11.66263,50.589274 11.96263,49.689274 11.96263,48.589274 C 11.96263,47.889274 11.86263,47.289274 11.56263,46.689274 C 11.36263,46.189274 10.96263,45.789274 10.56263,45.489274 C 10.06263,45.189274 9.5626301,45.089274 8.9626301,45.089274 C 8.1626301,45.089274 7.4626301,45.289274 6.8626301,45.889274 C 6.2626301,46.489274 5.9626301,47.389274 5.9626301,48.689274 z"
     id="path311"
     style="fill:#000000;fill-rule:evenodd;stroke:none" />
  <path
     d="M 4.0626301,42.143945 L 14.56263,42.143945 L 14.56263,55.643945 L 4.0626301,55.643945 L 4.0626301,42.143945 z"
     id="path313"
     style="opacity:0;fill:#000000;fill-rule:evenodd;stroke:none" />
  <path
     d="M 4.0626301,42.143945 L 14.56263,42.143945 L 14.56263,55.643945 L 4.0626301,55.643945 L 4.0626301,42.143945 z"
     id="path315"
     style="opacity:0;fill:none;stroke:#000000;stroke-width:0.80000001;stroke-linecap:butt;stroke-linejoin:miter;stroke-miterlimit:10" />
  <path
     d="M 204.8,37.5 L 215.3,37.5 L 215.3,49.5 L 204.8,49.5 L 204.8,37.5 z"
     id="path25"
     style="opacity:0;fill:#000000;fill-rule:evenodd;stroke:none" />
  <path
     d="M 204.8,37.5 L 215.3,37.5 L 215.3,49.5 L 204.8,49.5 L 204.8,37.5 z"
     id="path27"
     style="opacity:0;fill:none;stroke:#000000;stroke-width:0.80000001;stroke-linecap:butt;stroke-linejoin:miter;stroke-miterlimit:10" />
  <path
     d="M 205.17954,40.196557 L 194.24192,32.241924"
     id="path143"
     style="fill:none;stroke:#000000;stroke-width:0.88384807;stroke-linecap:butt;stroke-linejoin:round;stroke-miterlimit:10" />
  <path
     d="M 206.40935,44.140651 C 206.40935,42.640651 206.80935,41.540651 207.50935,40.640651 C 208.30935,39.840651 209.30935,39.440651 210.60935,39.440651 C 211.40935,39.440651 212.10935,39.640651 212.80935,40.040651 C 213.40935,40.440651 213.90935,40.940651 214.30935,41.640651 C 214.60935,42.340651 214.80935,43.140651 214.80935,44.040651 C 214.80935,44.940651 214.60935,45.740651 214.20935,46.440651 C 213.90935,47.140651 213.40935,47.640651 212.70935,48.040651 C 212.10935,48.340651 211.30935,48.540651 210.60935,48.540651 C 209.70935,48.540651 209.00935,48.340651 208.40935,47.940651 C 207.70935,47.540651 207.20935,47.040651 206.90935,46.340651 C 206.50935,45.640651 206.40935,44.840651 206.40935,44.140651 z M 207.60935,44.140651 C 207.60935,45.240651 207.90935,46.040651 208.40935,46.640651 C 209.00935,47.240651 209.70935,47.540651 210.60935,47.540651 C 211.40935,47.540651 212.20935,47.240651 212.70935,46.640651 C 213.30935,46.040651 213.60935,45.140651 213.60935,44.040651 C 213.60935,43.240651 213.50935,42.640651 213.20935,42.140651 C 213.00935,41.640651 212.60935,41.140651 212.20935,40.840651 C 211.70935,40.540651 211.20935,40.440651 210.60935,40.440651 C 209.80935,40.440651 209.10935,40.740651 208.50935,41.240651 C 207.90935,41.840651 207.60935,42.840651 207.60935,44.140651 z"
     id="path235"
     style="fill:#000000;fill-rule:evenodd;stroke:none" />
  <path
     d="M 204.8,37.5 L 215.3,37.5 L 215.3,51 L 204.8,51 L 204.8,37.5 z"
     id="path237"
     style="opacity:0;fill:#000000;fill-rule:evenodd;stroke:none" />
  <path
     d="M 204.8,37.5 L 215.3,37.5 L 215.3,51 L 204.8,51 L 204.8,37.5 z"
     id="path239"
     style="opacity:0;fill:none;stroke:#000000;stroke-width:0.80000001;stroke-linecap:butt;stroke-linejoin:miter;stroke-miterlimit:10" />
  <path
     d="M 215.41099,40.270722 L 226.34861,32.316089"
     id="path3113"
     style="fill:none;stroke:#000000;stroke-width:0.88384807;stroke-linecap:butt;stroke-linejoin:round;stroke-miterlimit:10" />
  <path
     d="M 241.15806,60 L 251.65806,60 L 251.65806,72 L 241.15806,72 L 241.15806,60 z"
     id="path21"
     style="opacity:0;fill:#000000;fill-rule:evenodd;stroke:none" />
  <path
     d="M 241.15806,60 L 251.65806,60 L 251.65806,72 L 241.15806,72 L 241.15806,60 z"
     id="path23"
     style="opacity:0;fill:none;stroke:#000000;stroke-width:0.80000001;stroke-linecap:butt;stroke-linejoin:miter;stroke-miterlimit:10" />
  <path
     d="M 249.46546,61.144882 L 256.18641,49.471646"
     id="path113"
     style="fill:none;stroke:#000000;stroke-width:0.94329178;stroke-linecap:butt;stroke-linejoin:round;stroke-miterlimit:10" />
  <path
     d="M 241.75806,66.75 C 241.75806,65.25 242.15806,64.15 242.95806,63.25 C 243.75806,62.45 244.75806,62.05 245.95806,62.05 C 246.85806,62.05 247.55806,62.25 248.15806,62.65 C 248.85806,63.05 249.35806,63.55 249.65806,64.25 C 250.05806,64.95 250.15806,65.75 250.15806,66.65 C 250.15806,67.55 250.05806,68.35 249.65806,69.05 C 249.25806,69.75 248.75806,70.25 248.15806,70.65 C 247.45806,70.95 246.75806,71.15 245.95806,71.15 C 245.15806,71.15 244.45806,70.95 243.75806,70.55 C 243.15806,70.15 242.65806,69.65 242.25806,68.95 C 241.95806,68.25 241.75806,67.45 241.75806,66.75 z M 242.95806,66.75 C 242.95806,67.85 243.25806,68.65 243.85806,69.25 C 244.45806,69.85 245.15806,70.15 245.95806,70.15 C 246.85806,70.15 247.55806,69.85 248.15806,69.25 C 248.75806,68.65 248.95806,67.75 248.95806,66.65 C 248.95806,65.95 248.85806,65.25 248.65806,64.75 C 248.35806,64.25 248.05806,63.75 247.55806,63.45 C 247.15806,63.25 246.55806,63.05 245.95806,63.05 C 245.15806,63.05 244.45806,63.35 243.85806,63.95 C 243.25806,64.45 242.95806,65.45 242.95806,66.75 z"
     id="path229"
     style="fill:#000000;fill-rule:evenodd;stroke:none" />
  <path
     d="M 241.15806,60 L 251.65806,60 L 251.65806,73.5 L 241.15806,73.5 L 241.15806,60 z"
     id="path231"
     style="opacity:0;fill:#000000;fill-rule:evenodd;stroke:none" />
  <path
     d="M 241.15806,60 L 251.65806,60 L 251.65806,73.5 L 241.15806,73.5 L 241.15806,60 z"
     id="path233"
     style="opacity:0;fill:none;stroke:#000000;stroke-width:0.80000001;stroke-linecap:butt;stroke-linejoin:miter;stroke-miterlimit:10" />
  <path
     d="M 249.38159,72.021479 L 256.10254,83.694715"
     id="path3149"
     style="fill:none;stroke:#000000;stroke-width:0.94329178;stroke-linecap:butt;stroke-linejoin:round;stroke-miterlimit:10" />
  <path
     d="M 204.8,82.5 L 215.3,82.5 L 215.3,94.5 L 204.8,94.5 L 204.8,82.5 z"
     id="path5"
     style="opacity:0;fill:#000000;fill-rule:evenodd;stroke:none" />
  <path
     d="M 204.8,82.5 L 215.3,82.5 L 215.3,94.5 L 204.8,94.5 L 204.8,82.5 z"
     id="path7"
     style="opacity:0;fill:none;stroke:#000000;stroke-width:0.80000001;stroke-linecap:butt;stroke-linejoin:miter;stroke-miterlimit:10" />
  <path
     d="M 194.03517,100.86483 L 205.0231,92.923061"
     id="path77"
     style="fill:none;stroke:#000000;stroke-width:0.87033129;stroke-linecap:butt;stroke-linejoin:round;stroke-miterlimit:10" />
  <path
     d="M 205.85,89.5 C 205.85,88 206.25,86.9 206.95,86 C 207.75,85.2 208.75,84.8 210.05,84.8 C 210.85,84.8 211.55,85 212.25,85.4 C 212.85,85.8 213.35,86.3 213.75,87 C 214.05,87.7 214.25,88.5 214.25,89.4 C 214.25,90.3 214.05,91.1 213.65,91.8 C 213.35,92.5 212.85,93 212.15,93.4 C 211.55,93.7 210.75,93.9 210.05,93.9 C 209.15,93.9 208.45,93.7 207.85,93.3 C 207.15,92.9 206.65,92.4 206.35,91.7 C 205.95,91 205.85,90.3 205.85,89.5 z M 207.05,89.5 C 207.05,90.6 207.35,91.4 207.85,92 C 208.45,92.6 209.15,92.9 210.05,92.9 C 210.85,92.9 211.65,92.6 212.15,92 C 212.75,91.4 213.05,90.5 213.05,89.4 C 213.05,88.7 212.95,88 212.65,87.5 C 212.45,87 212.05,86.5 211.65,86.3 C 211.15,86 210.65,85.8 210.05,85.8 C 209.25,85.8 208.55,86.1 207.95,86.7 C 207.35,87.2 207.05,88.2 207.05,89.5 z"
     id="path205"
     style="fill:#000000;fill-rule:evenodd;stroke:none" />
  <path
     d="M 204.8,82.5 L 215.3,82.5 L 215.3,96 L 204.8,96 L 204.8,82.5 z"
     id="path207"
     style="opacity:0;fill:#000000;fill-rule:evenodd;stroke:none" />
  <path
     d="M 204.8,82.5 L 215.3,82.5 L 215.3,96 L 204.8,96 L 204.8,82.5 z"
     id="path209"
     style="opacity:0;fill:none;stroke:#000000;stroke-width:0.80000001;stroke-linecap:butt;stroke-linejoin:miter;stroke-miterlimit:10" />
  <path
     d="M 226.01441,100.87447 L 215.02648,92.932701"
     id="path3163"
     style="fill:none;stroke:#000000;stroke-width:0.87033129;stroke-linecap:butt;stroke-linejoin:round;stroke-miterlimit:10" />
  <path
     d="M 69.36058,36.637414 L 79.86058,36.637414 L 79.86058,48.637414 L 69.36058,48.637414 L 69.36058,36.637414 z"
     id="path3176"
     style="opacity:0;fill:#000000;fill-rule:evenodd;stroke:none" />
  <path
     d="M 69.36058,36.637414 L 79.86058,36.637414 L 79.86058,48.637414 L 69.36058,48.637414 L 69.36058,36.637414 z"
     id="path3178"
     style="opacity:0;fill:none;stroke:#000000;stroke-width:0.80000001;stroke-linecap:butt;stroke-linejoin:miter;stroke-miterlimit:10" />
  <path
     d="M 69.74012,39.333971 L 58.8025,31.379338"
     id="path3180"
     style="fill:none;stroke:#000000;stroke-width:0.88384807;stroke-linecap:butt;stroke-linejoin:round;stroke-miterlimit:10" />
  <path
     d="M 70.96993,43.278065 C 70.96993,41.778065 71.36993,40.678065 72.06993,39.778065 C 72.86993,38.978065 73.86993,38.578065 75.16993,38.578065 C 75.96993,38.578065 76.66993,38.778065 77.36993,39.178065 C 77.96993,39.578065 78.46993,40.078065 78.86993,40.778065 C 79.16993,41.478065 79.36993,42.278065 79.36993,43.178065 C 79.36993,44.078065 79.16993,44.878065 78.76993,45.578065 C 78.46993,46.278065 77.96993,46.778065 77.26993,47.178065 C 76.66993,47.478065 75.86993,47.678065 75.16993,47.678065 C 74.26993,47.678065 73.56993,47.478065 72.96993,47.078065 C 72.26993,46.678065 71.76993,46.178065 71.46993,45.478065 C 71.06993,44.778065 70.96993,43.978065 70.96993,43.278065 z M 72.16993,43.278065 C 72.16993,44.378065 72.46993,45.178065 72.96993,45.778065 C 73.56993,46.378065 74.26993,46.678065 75.16993,46.678065 C 75.96993,46.678065 76.76993,46.378065 77.26993,45.778065 C 77.86993,45.178065 78.16993,44.278065 78.16993,43.178065 C 78.16993,42.378065 78.06993,41.778065 77.76993,41.278065 C 77.56993,40.778065 77.16993,40.278065 76.76993,39.978065 C 76.26993,39.678065 75.76993,39.578065 75.16993,39.578065 C 74.36993,39.578065 73.66993,39.878065 73.06993,40.378065 C 72.46993,40.978065 72.16993,41.978065 72.16993,43.278065 z"
     id="path3182"
     style="fill:#000000;fill-rule:evenodd;stroke:none" />
  <path
     d="M 69.36058,36.637414 L 79.86058,36.637414 L 79.86058,50.137414 L 69.36058,50.137414 L 69.36058,36.637414 z"
     id="path3184"
     style="opacity:0;fill:#000000;fill-rule:evenodd;stroke:none" />
  <path
     d="M 69.36058,36.637414 L 79.86058,36.637414 L 79.86058,50.137414 L 69.36058,50.137414 L 69.36058,36.637414 z"
     id="path3186"
     style="opacity:0;fill:none;stroke:#000000;stroke-width:0.80000001;stroke-linecap:butt;stroke-linejoin:miter;stroke-miterlimit:10" />
  <path
     d="M 79.97157,39.408136 L 90.90919,31.453503"
     id="path3188"
     style="fill:none;stroke:#000000;stroke-width:0.88384807;stroke-linecap:butt;stroke-linejoin:round;stroke-miterlimit:10" />
  <path
     d="M 69.56473,81.800695 L 80.06473,81.800695 L 80.06473,93.800695 L 69.56473,93.800695 L 69.56473,81.800695 z"
     id="path3221"
     style="opacity:0;fill:#000000;fill-rule:evenodd;stroke:none" />
  <path
     d="M 69.56473,81.800695 L 80.06473,81.800695 L 80.06473,93.800695 L 69.56473,93.800695 L 69.56473,81.800695 z"
     id="path3223"
     style="opacity:0;fill:none;stroke:#000000;stroke-width:0.80000001;stroke-linecap:butt;stroke-linejoin:miter;stroke-miterlimit:10" />
  <path
     d="M 58.7999,100.16553 L 69.78783,92.223756"
     id="path3225"
     style="fill:none;stroke:#000000;stroke-width:0.87033129;stroke-linecap:butt;stroke-linejoin:round;stroke-miterlimit:10" />
  <path
     d="M 70.61473,88.800695 C 70.61473,87.300695 71.01473,86.200695 71.71473,85.300695 C 72.51473,84.500695 73.51473,84.100695 74.81473,84.100695 C 75.61473,84.100695 76.31473,84.300695 77.01473,84.700695 C 77.61473,85.100695 78.11473,85.600695 78.51473,86.300695 C 78.81473,87.000695 79.01473,87.800695 79.01473,88.700695 C 79.01473,89.600695 78.81473,90.400695 78.41473,91.100695 C 78.11473,91.800695 77.61473,92.300695 76.91473,92.700695 C 76.31473,93.000695 75.51473,93.200695 74.81473,93.200695 C 73.91473,93.200695 73.21473,93.000695 72.61473,92.600695 C 71.91473,92.200695 71.41473,91.700695 71.11473,91.000695 C 70.71473,90.300695 70.61473,89.600695 70.61473,88.800695 z M 71.81473,88.800695 C 71.81473,89.900695 72.11473,90.700695 72.61473,91.300695 C 73.21473,91.900695 73.91473,92.200695 74.81473,92.200695 C 75.61473,92.200695 76.41473,91.900695 76.91473,91.300695 C 77.51473,90.700695 77.81473,89.800695 77.81473,88.700695 C 77.81473,88.000695 77.71473,87.300695 77.41473,86.800695 C 77.21473,86.300695 76.81473,85.800695 76.41473,85.600695 C 75.91473,85.300695 75.41473,85.100695 74.81473,85.100695 C 74.01473,85.100695 73.31473,85.400695 72.71473,86.000695 C 72.11473,86.500695 71.81473,87.500695 71.81473,88.800695 z"
     id="path3227"
     style="fill:#000000;fill-rule:evenodd;stroke:none" />
  <path
     d="M 69.56473,81.800695 L 80.06473,81.800695 L 80.06473,95.300695 L 69.56473,95.300695 L 69.56473,81.800695 z"
     id="path3229"
     style="opacity:0;fill:#000000;fill-rule:evenodd;stroke:none" />
  <path
     d="M 69.56473,81.800695 L 80.06473,81.800695 L 80.06473,95.300695 L 69.56473,95.300695 L 69.56473,81.800695 z"
     id="path3231"
     style="opacity:0;fill:none;stroke:#000000;stroke-width:0.80000001;stroke-linecap:butt;stroke-linejoin:miter;stroke-miterlimit:10" />
  <path
     d="M 90.77914,100.17517 L 79.79121,92.233396"
     id="path3233"
     style="fill:none;stroke:#000000;stroke-width:0.87033129;stroke-linecap:butt;stroke-linejoin:round;stroke-miterlimit:10" />
  <path
     d="M 43.97073,59.097227 L 33.47073,59.097227 L 33.47073,71.097227 L 43.97073,71.097227 L 43.97073,59.097227 z"
     id="path3274"
     style="opacity:0;fill:#000000;fill-rule:evenodd;stroke:none" />
  <path
     d="M 43.97073,59.097227 L 33.47073,59.097227 L 33.47073,71.097227 L 43.97073,71.097227 L 43.97073,59.097227 z"
     id="path3276"
     style="opacity:0;fill:none;stroke:#000000;stroke-width:0.80000001;stroke-linecap:butt;stroke-linejoin:miter;stroke-miterlimit:10" />
  <path
     d="M 35.66333,60.242109 L 28.94238,48.568873"
     id="path3278"
     style="fill:none;stroke:#000000;stroke-width:0.94329178;stroke-linecap:butt;stroke-linejoin:round;stroke-miterlimit:10" />
  <path
     d="M 43.37073,65.847227 C 43.37073,64.347227 42.97073,63.247227 42.17073,62.347227 C 41.37073,61.547227 40.37073,61.147227 39.17073,61.147227 C 38.27073,61.147227 37.57073,61.347227 36.97073,61.747227 C 36.27073,62.147227 35.77073,62.647227 35.47073,63.347227 C 35.07073,64.047227 34.97073,64.847227 34.97073,65.747227 C 34.97073,66.647227 35.07073,67.447227 35.47073,68.147227 C 35.87073,68.847227 36.37073,69.347227 36.97073,69.747227 C 37.67073,70.047227 38.37073,70.247227 39.17073,70.247227 C 39.97073,70.247227 40.67073,70.047227 41.37073,69.647227 C 41.97073,69.247227 42.47073,68.747227 42.87073,68.047227 C 43.17073,67.347227 43.37073,66.547227 43.37073,65.847227 z M 42.17073,65.847227 C 42.17073,66.947227 41.87073,67.747227 41.27073,68.347227 C 40.67073,68.947227 39.97073,69.247227 39.17073,69.247227 C 38.27073,69.247227 37.57073,68.947227 36.97073,68.347227 C 36.37073,67.747227 36.17073,66.847227 36.17073,65.747227 C 36.17073,65.047227 36.27073,64.347227 36.47073,63.847227 C 36.77073,63.347227 37.07073,62.847227 37.57073,62.547227 C 37.97073,62.347227 38.57073,62.147227 39.17073,62.147227 C 39.97073,62.147227 40.67073,62.447227 41.27073,63.047227 C 41.87073,63.547227 42.17073,64.547227 42.17073,65.847227 z"
     id="path3280"
     style="fill:#000000;fill-rule:evenodd;stroke:none" />
  <path
     d="M 43.97073,59.097227 L 33.47073,59.097227 L 33.47073,72.597227 L 43.97073,72.597227 L 43.97073,59.097227 z"
     id="path3282"
     style="opacity:0;fill:#000000;fill-rule:evenodd;stroke:none" />
  <path
     d="M 43.97073,59.097227 L 33.47073,59.097227 L 33.47073,72.597227 L 43.97073,72.597227 L 43.97073,59.097227 z"
     id="path3284"
     style="opacity:0;fill:none;stroke:#000000;stroke-width:0.80000001;stroke-linecap:butt;stroke-linejoin:miter;stroke-miterlimit:10" />
  <path
     d="M 35.7472,71.118706 L 29.02625,82.791942"
     id="path3286"
     style="fill:none;stroke:#000000;stroke-width:0.94329178;stroke-linecap:butt;stroke-linejoin:round;stroke-miterlimit:10" />
  <g
     transform="translate(-4.9299852,176.69304)"
     id="g2882">
    <path
       d="M 94.271682,-103.16696 L 103.97168,-103.16696 L 103.97168,-91.16696 L 94.271682,-91.16696 L 94.271682,-103.16696 z"
       id="path2681"
       style="opacity:0;fill:#000000;fill-rule:evenodd;stroke:none" />
    <path
       d="M 94.271682,-103.16696 L 103.97168,-103.16696 L 103.97168,-91.16696 L 94.271682,-91.16696 L 94.271682,-103.16696 z"
       id="path2683"
       style="opacity:0;fill:none;stroke:#000000;stroke-width:0.80000001;stroke-linecap:butt;stroke-linejoin:miter;stroke-miterlimit:10" />
    <path
       d="M 95.671682,-76.56696 L 96.371682,-90.66696 L 100.07168,-90.16696 L 96.371682,-76.46696 L 95.671682,-76.56696 z"
       id="path2693"
       style="fill:#000000;fill-rule:evenodd;stroke:none" />
    <path
       d="M 95.271682,-91.86696 L 95.271682,-100.76696 L 96.471682,-100.76696 L 96.471682,-97.06696 L 101.07168,-97.06696 L 101.07168,-100.76696 L 102.17168,-100.76696 L 102.17168,-91.86696 L 101.07168,-91.86696 L 101.07168,-96.06696 L 96.471682,-96.06696 L 96.471682,-91.86696 L 95.271682,-91.86696 z"
       id="path2703"
       style="fill:#000000;fill-rule:evenodd;stroke:none" />
    <path
       d="M 94.271682,-103.16696 L 103.97168,-103.16696 L 103.97168,-89.66696 L 94.271682,-89.66696 L 94.271682,-103.16696 z"
       id="path2705"
       style="opacity:0;fill:#000000;fill-rule:evenodd;stroke:none" />
    <path
       d="M 94.271682,-103.16696 L 103.97168,-103.16696 L 103.97168,-89.66696 L 94.271682,-89.66696 L 94.271682,-103.16696 z"
       id="path2707"
       style="opacity:0;fill:none;stroke:#000000;stroke-width:0.80000001;stroke-linecap:round;stroke-linejoin:miter;stroke-miterlimit:10" />
  </g>
  <g
     transform="translate(-4.9299854,176.69304)"
     id="g2890">
    <path
       d="M 55.971682,-103.16696 L 65.771682,-103.16696 L 65.771682,-91.16696 L 55.971682,-91.16696 L 55.971682,-103.16696 z"
       id="path2685"
       style="opacity:0;fill:#000000;fill-rule:evenodd;stroke:none" />
    <path
       d="M 55.971682,-103.16696 L 65.771682,-103.16696 L 65.771682,-91.16696 L 55.971682,-91.16696 L 55.971682,-103.16696 z"
       id="path2687"
       style="opacity:0;fill:none;stroke:#000000;stroke-width:0.80000001;stroke-linecap:butt;stroke-linejoin:miter;stroke-miterlimit:10" />
    <path
       d="M 63.571682,-76.46696 L 59.871682,-90.16696 L 63.571682,-90.66696 L 64.271682,-76.56696 L 63.571682,-76.46696 z"
       id="path2691"
       style="fill:#000000;fill-rule:evenodd;stroke:none" />
    <path
       d="M 56.971682,-91.86696 L 56.971682,-100.76696 L 58.171682,-100.76696 L 58.171682,-97.06696 L 62.771682,-97.06696 L 62.771682,-100.76696 L 63.971682,-100.76696 L 63.971682,-91.86696 L 62.771682,-91.86696 L 62.771682,-96.06696 L 58.171682,-96.06696 L 58.171682,-91.86696 L 56.971682,-91.86696 z"
       id="path2709"
       style="fill:#000000;fill-rule:evenodd;stroke:none" />
    <path
       d="M 55.971682,-103.16696 L 65.771682,-103.16696 L 65.771682,-89.66696 L 55.971682,-89.66696 L 55.971682,-103.16696 z"
       id="path2711"
       style="opacity:0;fill:#000000;fill-rule:evenodd;stroke:none" />
    <path
       d="M 55.971682,-103.16696 L 65.771682,-103.16696 L 65.771682,-89.66696 L 55.971682,-89.66696 L 55.971682,-103.16696 z"
       id="path2713"
       style="opacity:0;fill:none;stroke:#000000;stroke-width:0.80000001;stroke-linecap:round;stroke-linejoin:miter;stroke-miterlimit:10" />
  </g>
  <g
     transform="translate(51.544763,163.91689)"
     id="g2870">
    <path
       d="M 172.97168,-88.86696 L 182.77168,-88.86696 L 182.77168,-76.86696 L 172.97168,-76.86696 L 172.97168,-88.86696 z"
       id="path2715"
       style="opacity:0;fill:#000000;fill-rule:evenodd;stroke:none" />
    <path
       d="M 172.97168,-88.86696 L 182.77168,-88.86696 L 182.77168,-76.86696 L 172.97168,-76.86696 L 172.97168,-88.86696 z"
       id="path2717"
       style="opacity:0;fill:none;stroke:#000000;stroke-width:0.80000001;stroke-linecap:round;stroke-linejoin:miter;stroke-miterlimit:10" />
    <path
       d="M 174.57168,-65.16696 L 175.87168,-64.96696"
       id="path2731"
       style="fill:none;stroke:#000000;stroke-width:0.80000001;stroke-linecap:butt;stroke-linejoin:round;stroke-miterlimit:10" />
    <path
       d="M 174.77168,-67.96696 L 176.67168,-67.66696"
       id="path2733"
       style="fill:none;stroke:#000000;stroke-width:0.80000001;stroke-linecap:butt;stroke-linejoin:round;stroke-miterlimit:10" />
    <path
       d="M 174.87168,-70.76696 L 177.37168,-70.36696"
       id="path2735"
       style="fill:none;stroke:#000000;stroke-width:0.80000001;stroke-linecap:butt;stroke-linejoin:round;stroke-miterlimit:10" />
    <path
       d="M 174.97168,-73.66696 L 178.17168,-73.16696"
       id="path2737"
       style="fill:none;stroke:#000000;stroke-width:0.80000001;stroke-linecap:butt;stroke-linejoin:round;stroke-miterlimit:10" />
    <path
       d="M 175.17168,-76.46696 L 178.87168,-75.86696"
       id="path2739"
       style="fill:none;stroke:#000000;stroke-width:0.80000001;stroke-linecap:butt;stroke-linejoin:round;stroke-miterlimit:10" />
    <path
       d="M 174.07168,-77.66696 L 174.07168,-86.46696 L 175.17168,-86.46696 L 175.17168,-82.86696 L 179.77168,-82.86696 L 179.77168,-86.46696 L 180.97168,-86.46696 L 180.97168,-77.66696 L 179.77168,-77.66696 L 179.77168,-81.76696 L 175.17168,-81.76696 L 175.17168,-77.66696 L 174.07168,-77.66696 z"
       id="path2753"
       style="fill:#000000;fill-rule:evenodd;stroke:none" />
    <path
       d="M 172.97168,-88.86696 L 182.77168,-88.86696 L 182.77168,-75.36696 L 172.97168,-75.36696 L 172.97168,-88.86696 z"
       id="path2755"
       style="opacity:0;fill:#000000;fill-rule:evenodd;stroke:none" />
    <path
       d="M 172.97168,-88.86696 L 182.77168,-88.86696 L 182.77168,-75.36696 L 172.97168,-75.36696 L 172.97168,-88.86696 z"
       id="path2757"
       style="opacity:0;fill:none;stroke:#000000;stroke-width:0.80000001;stroke-linecap:butt;stroke-linejoin:miter;stroke-miterlimit:10" />
  </g>
  <g
     transform="translate(51.219763,163.91689)"
     id="g2858">
    <path
       d="M 134.77168,-88.86696 L 144.47168,-88.86696 L 144.47168,-76.86696 L 134.77168,-76.86696 L 134.77168,-88.86696 z"
       id="path2719"
       style="opacity:0;fill:#000000;fill-rule:evenodd;stroke:none" />
    <path
       d="M 134.77168,-88.86696 L 144.47168,-88.86696 L 144.47168,-76.86696 L 134.77168,-76.86696 L 134.77168,-88.86696 z"
       id="path2721"
       style="opacity:0;fill:none;stroke:#000000;stroke-width:0.80000001;stroke-linecap:round;stroke-linejoin:miter;stroke-miterlimit:10" />
    <path
       d="M 141.57168,-64.96696 L 142.87168,-65.16696"
       id="path2743"
       style="fill:none;stroke:#000000;stroke-width:0.80000001;stroke-linecap:butt;stroke-linejoin:round;stroke-miterlimit:10" />
    <path
       d="M 140.87168,-67.66696 L 142.77168,-67.96696"
       id="path2745"
       style="fill:none;stroke:#000000;stroke-width:0.80000001;stroke-linecap:butt;stroke-linejoin:round;stroke-miterlimit:10" />
    <path
       d="M 140.07168,-70.36696 L 142.67168,-70.76696"
       id="path2747"
       style="fill:none;stroke:#000000;stroke-width:0.80000001;stroke-linecap:butt;stroke-linejoin:round;stroke-miterlimit:10" />
    <path
       d="M 139.37168,-73.16696 L 142.47168,-73.66696"
       id="path2749"
       style="fill:none;stroke:#000000;stroke-width:0.80000001;stroke-linecap:butt;stroke-linejoin:round;stroke-miterlimit:10" />
    <path
       d="M 138.67168,-75.86696 L 142.37168,-76.46696"
       id="path2751"
       style="fill:none;stroke:#000000;stroke-width:0.80000001;stroke-linecap:butt;stroke-linejoin:round;stroke-miterlimit:10" />
    <path
       d="M 135.77168,-77.66696 L 135.77168,-86.46696 L 136.97168,-86.46696 L 136.97168,-82.86696 L 141.57168,-82.86696 L 141.57168,-86.46696 L 142.67168,-86.46696 L 142.67168,-77.66696 L 141.57168,-77.66696 L 141.57168,-81.76696 L 136.97168,-81.76696 L 136.97168,-77.66696 L 135.77168,-77.66696 z"
       id="path2759"
       style="fill:#000000;fill-rule:evenodd;stroke:none" />
    <path
       d="M 134.77168,-88.86696 L 144.47168,-88.86696 L 144.47168,-75.36696 L 134.77168,-75.36696 L 134.77168,-88.86696 z"
       id="path2761"
       style="opacity:0;fill:#000000;fill-rule:evenodd;stroke:none" />
    <path
       d="M 134.77168,-88.86696 L 144.47168,-88.86696 L 144.47168,-75.36696 L 134.77168,-75.36696 L 134.77168,-88.86696 z"
       id="path2763"
       style="opacity:0;fill:none;stroke:#000000;stroke-width:0.80000001;stroke-linecap:butt;stroke-linejoin:miter;stroke-miterlimit:10" />
  </g>
  <g
     transform="matrix(1,0,0,-1,130.24478,-44.520733)"
     id="g2898">
    <path
       d="M 55.971682,-103.16696 L 65.771682,-103.16696 L 65.771682,-91.16696 L 55.971682,-91.16696 L 55.971682,-103.16696 z"
       id="path2900"
       style="opacity:0;fill:#000000;fill-rule:evenodd;stroke:none" />
    <path
       d="M 55.971682,-103.16696 L 65.771682,-103.16696 L 65.771682,-91.16696 L 55.971682,-91.16696 L 55.971682,-103.16696 z"
       id="path2902"
       style="opacity:0;fill:none;stroke:#000000;stroke-width:0.80000001;stroke-linecap:butt;stroke-linejoin:miter;stroke-miterlimit:10" />
    <path
       d="M 63.571682,-76.46696 L 59.871682,-90.16696 L 63.571682,-90.66696 L 64.271682,-76.56696 L 63.571682,-76.46696 z"
       id="path2904"
       style="fill:#000000;fill-rule:evenodd;stroke:none" />
    <path
       d="M 56.971682,-91.86696 L 56.971682,-100.76696 L 58.171682,-100.76696 L 58.171682,-97.06696 L 62.771682,-97.06696 L 62.771682,-100.76696 L 63.971682,-100.76696 L 63.971682,-91.86696 L 62.771682,-91.86696 L 62.771682,-96.06696 L 58.171682,-96.06696 L 58.171682,-91.86696 L 56.971682,-91.86696 z"
       id="path2906"
       style="fill:#000000;fill-rule:evenodd;stroke:none" />
    <path
       d="M 55.971682,-103.16696 L 65.771682,-103.16696 L 65.771682,-89.66696 L 55.971682,-89.66696 L 55.971682,-103.16696 z"
       id="path2908"
       style="opacity:0;fill:#000000;fill-rule:evenodd;stroke:none" />
    <path
       d="M 55.971682,-103.16696 L 65.771682,-103.16696 L 65.771682,-89.66696 L 55.971682,-89.66696 L 55.971682,-103.16696 z"
       id="path2910"
       style="opacity:0;fill:none;stroke:#000000;stroke-width:0.80000001;stroke-linecap:round;stroke-linejoin:miter;stroke-miterlimit:10" />
  </g>
  <g
     transform="matrix(1,0,0,-1,130.45753,-44.520733)"
     id="g2912">
    <path
       d="M 94.271682,-103.16696 L 103.97168,-103.16696 L 103.97168,-91.16696 L 94.271682,-91.16696 L 94.271682,-103.16696 z"
       id="path2914"
       style="opacity:0;fill:#000000;fill-rule:evenodd;stroke:none" />
    <path
       d="M 94.271682,-103.16696 L 103.97168,-103.16696 L 103.97168,-91.16696 L 94.271682,-91.16696 L 94.271682,-103.16696 z"
       id="path2916"
       style="opacity:0;fill:none;stroke:#000000;stroke-width:0.80000001;stroke-linecap:butt;stroke-linejoin:miter;stroke-miterlimit:10" />
    <path
       d="M 95.671682,-76.56696 L 96.371682,-90.66696 L 100.07168,-90.16696 L 96.371682,-76.46696 L 95.671682,-76.56696 z"
       id="path2918"
       style="fill:#000000;fill-rule:evenodd;stroke:none" />
    <path
       d="M 95.271682,-91.86696 L 95.271682,-100.76696 L 96.471682,-100.76696 L 96.471682,-97.06696 L 101.07168,-97.06696 L 101.07168,-100.76696 L 102.17168,-100.76696 L 102.17168,-91.86696 L 101.07168,-91.86696 L 101.07168,-96.06696 L 96.471682,-96.06696 L 96.471682,-91.86696 L 95.271682,-91.86696 z"
       id="path2920"
       style="fill:#000000;fill-rule:evenodd;stroke:none" />
    <path
       d="M 94.271682,-103.16696 L 103.97168,-103.16696 L 103.97168,-89.66696 L 94.271682,-89.66696 L 94.271682,-103.16696 z"
       id="path2922"
       style="opacity:0;fill:#000000;fill-rule:evenodd;stroke:none" />
    <path
       d="M 94.271682,-103.16696 L 103.97168,-103.16696 L 103.97168,-89.66696 L 94.271682,-89.66696 L 94.271682,-103.16696 z"
       id="path2924"
       style="opacity:0;fill:none;stroke:#000000;stroke-width:0.80000001;stroke-linecap:round;stroke-linejoin:miter;stroke-miterlimit:10" />
  </g>
  <g
     transform="matrix(1,0,0,-1,-84.097634,-31.570395)"
     id="g2926">
    <path
       d="M 134.77168,-88.86696 L 144.47168,-88.86696 L 144.47168,-76.86696 L 134.77168,-76.86696 L 134.77168,-88.86696 z"
       id="path2928"
       style="opacity:0;fill:#000000;fill-rule:evenodd;stroke:none" />
    <path
       d="M 134.77168,-88.86696 L 144.47168,-88.86696 L 144.47168,-76.86696 L 134.77168,-76.86696 L 134.77168,-88.86696 z"
       id="path2930"
       style="opacity:0;fill:none;stroke:#000000;stroke-width:0.80000001;stroke-linecap:round;stroke-linejoin:miter;stroke-miterlimit:10" />
    <path
       d="M 141.57168,-64.96696 L 142.87168,-65.16696"
       id="path2932"
       style="fill:none;stroke:#000000;stroke-width:0.80000001;stroke-linecap:butt;stroke-linejoin:round;stroke-miterlimit:10" />
    <path
       d="M 140.87168,-67.66696 L 142.77168,-67.96696"
       id="path2934"
       style="fill:none;stroke:#000000;stroke-width:0.80000001;stroke-linecap:butt;stroke-linejoin:round;stroke-miterlimit:10" />
    <path
       d="M 140.07168,-70.36696 L 142.67168,-70.76696"
       id="path2936"
       style="fill:none;stroke:#000000;stroke-width:0.80000001;stroke-linecap:butt;stroke-linejoin:round;stroke-miterlimit:10" />
    <path
       d="M 139.37168,-73.16696 L 142.47168,-73.66696"
       id="path2938"
       style="fill:none;stroke:#000000;stroke-width:0.80000001;stroke-linecap:butt;stroke-linejoin:round;stroke-miterlimit:10" />
    <path
       d="M 138.67168,-75.86696 L 142.37168,-76.46696"
       id="path2940"
       style="fill:none;stroke:#000000;stroke-width:0.80000001;stroke-linecap:butt;stroke-linejoin:round;stroke-miterlimit:10" />
    <path
       d="M 135.77168,-77.66696 L 135.77168,-86.46696 L 136.97168,-86.46696 L 136.97168,-82.86696 L 141.57168,-82.86696 L 141.57168,-86.46696 L 142.67168,-86.46696 L 142.67168,-77.66696 L 141.57168,-77.66696 L 141.57168,-81.76696 L 136.97168,-81.76696 L 136.97168,-77.66696 L 135.77168,-77.66696 z"
       id="path2942"
       style="fill:#000000;fill-rule:evenodd;stroke:none" />
    <path
       d="M 134.77168,-88.86696 L 144.47168,-88.86696 L 144.47168,-75.36696 L 134.77168,-75.36696 L 134.77168,-88.86696 z"
       id="path2944"
       style="opacity:0;fill:#000000;fill-rule:evenodd;stroke:none" />
    <path
       d="M 134.77168,-88.86696 L 144.47168,-88.86696 L 144.47168,-75.36696 L 134.77168,-75.36696 L 134.77168,-88.86696 z"
       id="path2946"
       style="opacity:0;fill:none;stroke:#000000;stroke-width:0.80000001;stroke-linecap:butt;stroke-linejoin:miter;stroke-miterlimit:10" />
  </g>
  <g
     transform="matrix(1,0,0,-1,-83.884882,-31.570395)"
     id="g2948">
    <path
       d="M 172.97168,-88.86696 L 182.77168,-88.86696 L 182.77168,-76.86696 L 172.97168,-76.86696 L 172.97168,-88.86696 z"
       id="path2950"
       style="opacity:0;fill:#000000;fill-rule:evenodd;stroke:none" />
    <path
       d="M 172.97168,-88.86696 L 182.77168,-88.86696 L 182.77168,-76.86696 L 172.97168,-76.86696 L 172.97168,-88.86696 z"
       id="path2952"
       style="opacity:0;fill:none;stroke:#000000;stroke-width:0.80000001;stroke-linecap:round;stroke-linejoin:miter;stroke-miterlimit:10" />
    <path
       d="M 174.57168,-65.16696 L 175.87168,-64.96696"
       id="path2954"
       style="fill:none;stroke:#000000;stroke-width:0.80000001;stroke-linecap:butt;stroke-linejoin:round;stroke-miterlimit:10" />
    <path
       d="M 174.77168,-67.96696 L 176.67168,-67.66696"
       id="path2956"
       style="fill:none;stroke:#000000;stroke-width:0.80000001;stroke-linecap:butt;stroke-linejoin:round;stroke-miterlimit:10" />
    <path
       d="M 174.87168,-70.76696 L 177.37168,-70.36696"
       id="path2958"
       style="fill:none;stroke:#000000;stroke-width:0.80000001;stroke-linecap:butt;stroke-linejoin:round;stroke-miterlimit:10" />
    <path
       d="M 174.97168,-73.66696 L 178.17168,-73.16696"
       id="path2960"
       style="fill:none;stroke:#000000;stroke-width:0.80000001;stroke-linecap:butt;stroke-linejoin:round;stroke-miterlimit:10" />
    <path
       d="M 175.17168,-76.46696 L 178.87168,-75.86696"
       id="path2962"
       style="fill:none;stroke:#000000;stroke-width:0.80000001;stroke-linecap:butt;stroke-linejoin:round;stroke-miterlimit:10" />
    <path
       d="M 174.07168,-77.66696 L 174.07168,-86.46696 L 175.17168,-86.46696 L 175.17168,-82.86696 L 179.77168,-82.86696 L 179.77168,-86.46696 L 180.97168,-86.46696 L 180.97168,-77.66696 L 179.77168,-77.66696 L 179.77168,-81.76696 L 175.17168,-81.76696 L 175.17168,-77.66696 L 174.07168,-77.66696 z"
       id="path2964"
       style="fill:#000000;fill-rule:evenodd;stroke:none" />
    <path
       d="M 172.97168,-88.86696 L 182.77168,-88.86696 L 182.77168,-75.36696 L 172.97168,-75.36696 L 172.97168,-88.86696 z"
       id="path2966"
       style="opacity:0;fill:#000000;fill-rule:evenodd;stroke:none" />
    <path
       d="M 172.97168,-88.86696 L 182.77168,-88.86696 L 182.77168,-75.36696 L 172.97168,-75.36696 L 172.97168,-88.86696 z"
       id="path2968"
       style="opacity:0;fill:none;stroke:#000000;stroke-width:0.80000001;stroke-linecap:butt;stroke-linejoin:miter;stroke-miterlimit:10" />
  </g>
</svg>
