<?xml version="1.0" encoding="UTF-8" standalone="no"?>
<!-- Created with Inkscape (http://www.inkscape.org/) -->

<svg
   xmlns:dc="http://purl.org/dc/elements/1.1/"
   xmlns:cc="http://creativecommons.org/ns#"
   xmlns:rdf="http://www.w3.org/1999/02/22-rdf-syntax-ns#"
   xmlns:svg="http://www.w3.org/2000/svg"
   xmlns="http://www.w3.org/2000/svg"
   xmlns:xlink="http://www.w3.org/1999/xlink"
   xmlns:sodipodi="http://sodipodi.sourceforge.net/DTD/sodipodi-0.dtd"
   xmlns:inkscape="http://www.inkscape.org/namespaces/inkscape"
   version="1.0"
   width="356.59186"
   height="234.76172"
   id="svg5279"
   sodipodi:version="0.32"
   inkscape:version="0.91 r13725"
   sodipodi:docname="rc.svg"
   inkscape:output_extension="org.inkscape.output.svg.inkscape">
  <sodipodi:namedview
     inkscape:window-height="731"
     inkscape:window-width="1024"
     inkscape:pageshadow="2"
     inkscape:pageopacity="0.0"
     guidetolerance="10.0"
     gridtolerance="10.0"
     objecttolerance="10.0"
     borderopacity="1.0"
     bordercolor="#666666"
     pagecolor="#ffffff"
     id="base"
     showgrid="false"
     inkscape:zoom="1.2417144"
     inkscape:cx="124.99432"
     inkscape:cy="204.90108"
     inkscape:window-x="0"
     inkscape:window-y="18"
     inkscape:current-layer="svg5279"
     showguides="true"
     inkscape:guide-bbox="true"
     fit-margin-top="0"
     fit-margin-left="0"
     fit-margin-right="0"
     fit-margin-bottom="0"
     inkscape:window-maximized="0" />
  <metadata
     id="metadata2719">
    <rdf:RDF>
      <cc:Work
         rdf:about="">
        <dc:format>image/svg+xml</dc:format>
        <dc:type
           rdf:resource="http://purl.org/dc/dcmitype/StillImage" />
        <dc:title></dc:title>
      </cc:Work>
    </rdf:RDF>
  </metadata>
  <defs
     id="defs5281">
    <marker
       inkscape:stockid="Arrow1Lend"
       orient="auto"
       refY="0"
       refX="0"
       id="Arrow1Lend"
       style="overflow:visible">
      <path
         id="path4640"
         d="M 0,0 5,-5 -12.5,0 5,5 0,0 Z"
         style="fill-rule:evenodd;stroke:#000000;stroke-width:1pt;marker-start:none"
         transform="matrix(-0.8,0,0,-0.8,-10,0)"
         inkscape:connector-curvature="0" />
    </marker>
    <marker
       style="overflow:visible"
       id="Arrow2Lstart"
       refX="0"
       refY="0"
       orient="auto"
       inkscape:stockid="Arrow2Lstart">
      <path
         transform="matrix(1.1,0,0,1.1,1.1,0)"
         d="M 8.7185878,4.0337352 -2.2072895,0.01601326 8.7185884,-4.0017078 c -1.7454984,2.3720609 -1.7354408,5.6174519 -6e-7,8.035443 z"
         style="font-size:12px;fill-rule:evenodd;stroke-width:0.625;stroke-linejoin:round"
         id="path5065"
         inkscape:connector-curvature="0" />
    </marker>
    <inkscape:path-effect
       effect="bend_path"
       id="path-effect4095"
       bendpath="m 1185.82,1388.16 c 44.59,-39.5 84.59,-35.15 120.07,1.3"
       prop_scale="1"
       bendpath-nodetypes="cc"
       is_visible="true"
       scale_y_rel="false"
       vertical="false" />
    <inkscape:path-effect
       effect="bend_path"
       id="path-effect4080"
       bendpath="m 1075.91,1344.31 c 44.59,-39.5 84.59,-35.15 120.07,1.3"
       prop_scale="1"
       bendpath-nodetypes="cc"
       is_visible="true"
       scale_y_rel="false"
       vertical="false" />
    <inkscape:path-effect
       bendpath-nodetypes="cc"
       prop_scale="1"
       bendpath="m 1248.08,1162.54 c 44.59,-39.5 84.59,-35.15 120.07,1.3"
       id="path-effect3240"
       effect="bend_path"
       is_visible="true"
       scale_y_rel="false"
       vertical="false" />
    <marker
       style="overflow:visible"
       id="Arrow2Lend"
       refX="0"
       refY="0"
       orient="auto"
       inkscape:stockid="Arrow2Lend">
      <path
         transform="matrix(-1.1,0,0,-1.1,-1.1,0)"
         d="M 8.7185878,4.0337352 -2.2072895,0.01601326 8.7185884,-4.0017078 c -1.7454984,2.3720609 -1.7354408,5.6174519 -6e-7,8.035443 z"
         style="font-size:12px;fill-rule:evenodd;stroke-width:0.625;stroke-linejoin:round"
         id="path3460"
         inkscape:connector-curvature="0" />
    </marker>
    <linearGradient
       id="linearGradient3701"
       inkscape:collect="always">
      <stop
         id="stop3703"
         offset="0"
         style="stop-color:#000000;stop-opacity:1;" />
      <stop
         id="stop3705"
         offset="1"
         style="stop-color:#000000;stop-opacity:0;" />
    </linearGradient>
    <inkscape:perspective
       id="perspective2721"
       inkscape:persp3d-origin="372.04724 : 350.78739 : 1"
       inkscape:vp_z="744.09448 : 526.18109 : 1"
       inkscape:vp_y="0 : 1000 : 0"
       inkscape:vp_x="0 : 526.18109 : 1"
       sodipodi:type="inkscape:persp3d" />
    <linearGradient
       gradientUnits="userSpaceOnUse"
       y2="178.07646"
       x2="235.34442"
       y1="178.07646"
       x1="204.57684"
       id="linearGradient3713"
       xlink:href="#linearGradient3701"
       inkscape:collect="always" />
  </defs>
  <flowRoot
     transform="translate(-19.256809,-1181.3897)"
     style="font-style:normal;font-weight:normal;font-size:40px;font-family:'Bitstream Vera Sans';fill:#000000;fill-opacity:1;stroke:none;stroke-width:1px;stroke-linecap:butt;stroke-linejoin:miter;stroke-opacity:1"
     id="flowRoot6826"
     xml:space="preserve"><flowRegion
       id="flowRegion6828"><rect
         y="110.969"
         x="1148.0315"
         height="127.55905"
         width="230.06186"
         id="rect6830" /></flowRegion><flowPara
       id="flowPara6832" /></flowRoot>  <flowRoot
     transform="translate(-19.256809,-1181.3897)"
     style="font-style:normal;font-weight:normal;font-size:40px;font-family:'Bitstream Vera Sans';fill:#000000;fill-opacity:1;stroke:none;stroke-width:1px;stroke-linecap:butt;stroke-linejoin:miter;stroke-opacity:1"
     id="flowRoot6834"
     xml:space="preserve"><flowRegion
       id="flowRegion6836"><rect
         y="49.467312"
         x="1122.9752"
         height="243.72891"
         width="398.62204"
         id="rect6838" /></flowRegion><flowPara
       id="flowPara6840" /></flowRoot>  <g
     style="fill:#000000;fill-opacity:1;stroke:#000000;stroke-opacity:1"
     transform="matrix(0,1,-1,0,131.3919,162.94943)"
     id="g4688">
    <rect
       width="5.0178571"
       height="38.135715"
       ry="1.0035714"
       x="-37.132141"
       y="-120.42857"
       id="rect4690"
       style="fill:#000000;fill-opacity:1;stroke:#000000;stroke-width:1.50000024;stroke-miterlimit:4.0999999;stroke-dasharray:none;stroke-opacity:1" />
    <rect
       width="5.0178571"
       height="38.135715"
       ry="1.0035714"
       x="-15.555355"
       y="-120.42857"
       id="rect4692"
       style="fill:#000000;fill-opacity:1;stroke:#000000;stroke-width:1.50000024;stroke-miterlimit:4.0999999;stroke-dasharray:none;stroke-opacity:1" />
  </g>
  <path
     inkscape:connector-curvature="0"
     id="path4694"
     d="m 232.75262,129.28521 0,-42.4264 0,0"
     style="fill:none;fill-rule:evenodd;stroke:#000000;stroke-width:1px;stroke-linecap:butt;stroke-linejoin:miter;stroke-opacity:1;marker-end:" />
  <path
     inkscape:connector-curvature="0"
     id="path4696"
     d="m 232.75262,150.49842 0,40.30508"
     style="fill:none;fill-rule:evenodd;stroke:#000000;stroke-width:1px;stroke-linecap:butt;stroke-linejoin:miter;stroke-opacity:1;marker-end:" />
  <path
     d="m 238.81357,50.27672 c 0.001,3.3483 -2.7126,6.0634 -6.0609,6.0634 -3.3484,0 -6.0623,-2.7151 -6.061,-6.0634 -10e-4,-3.3483 2.7126,-6.0634 6.061,-6.0634 3.3483,0 6.0622,2.7151 6.0609,6.0634 l 0,0 z"
     id="path3106"
     style="fill:#000000;fill-opacity:1;stroke:#000000;stroke-width:1.5;stroke-miterlimit:4;stroke-dasharray:none;stroke-opacity:1;marker-end:"
     inkscape:connector-curvature="0" />
  <g
     transform="translate(580.38805,-732.04597)"
     id="g3110">
    <path
       id="path3112"
       style="fill:none;fill-opacity:1;fill-rule:nonzero;stroke:#000000;stroke-width:1.70000005;stroke-linejoin:round;stroke-miterlimit:4;stroke-dasharray:none;stroke-dashoffset:0;stroke-opacity:1"
       d="m -462.82232,782.36241 c 0.0712,0 5.40987,-14.4961 5.40987,-14.4961 l 10.39265,28.9128 5.26751,-14.4167 m 21.05079,0 c 0.0712,0 5.40987,-14.4961 5.40987,-14.4961 l 10.39265,28.9128 5.26751,-14.4167 m -42.13042,0 c 0.0712,0 5.40987,-14.4961 5.40987,-14.4961 l 10.39265,28.9128 5.26751,-14.4167"
       inkscape:connector-curvature="0" />
    <path
       style="fill:none;fill-opacity:1;fill-rule:nonzero;stroke:#000000;stroke-width:1.70000005;stroke-linecap:round;stroke-linejoin:round;stroke-miterlimit:4;stroke-dasharray:none;stroke-dashoffset:0;stroke-opacity:1"
       d="m -462.72013,782.32271 -14.09342,0"
       id="path3114"
       inkscape:connector-curvature="0" />
    <path
       style="fill:none;fill-opacity:1;fill-rule:nonzero;stroke:#000000;stroke-width:1.70000005;stroke-linecap:round;stroke-linejoin:round;stroke-miterlimit:4;stroke-dasharray:none;stroke-dashoffset:0;stroke-opacity:1"
       d="m -385.57177,782.32271 -14.09342,0"
       id="path3116"
       inkscape:connector-curvature="0" />
  </g>
  <path
     d="m 238.81357,227.94832 c 0.001,3.3483 -2.7126,6.0634 -6.0609,6.0634 -3.3484,0 -6.0623,-2.7151 -6.061,-6.0634 -10e-4,-3.3483 2.7126,-6.0634 6.061,-6.0634 3.3483,0 6.0622,2.7151 6.0609,6.0634 l 0,0 z"
     id="path4868"
     style="fill:#000000;fill-opacity:1;stroke:#000000;stroke-width:1.5;stroke-miterlimit:4;stroke-dasharray:none;stroke-opacity:1;marker-end:"
     inkscape:connector-curvature="0" />
  <path
     id="path4874"
     d="m 67.770583,50.27672 c 37.361777,0 37.361777,0 37.361777,0"
     style="opacity:1;fill:#000000;fill-opacity:1;fill-rule:nonzero;stroke:#000000;stroke-width:1.60000002;stroke-linecap:round;stroke-linejoin:miter;stroke-miterlimit:4;stroke-dasharray:none;stroke-dashoffset:0;stroke-opacity:1;marker-end:"
     inkscape:connector-curvature="0" />
  <path
     id="path4878"
     d="m 190.63399,50.27672 99.16113,0"
     style="opacity:1;fill:#000000;fill-opacity:1;fill-rule:nonzero;stroke:#000000;stroke-width:1.60000002;stroke-linecap:round;stroke-linejoin:miter;stroke-miterlimit:4;stroke-dasharray:none;stroke-dashoffset:0;stroke-opacity:1;marker-end:"
     inkscape:connector-curvature="0" />
  <path
     id="path4882"
     d="m 232.81403,50.55762 0,75.3179"
     style="opacity:1;fill:#000000;fill-opacity:1;fill-rule:nonzero;stroke:#000000;stroke-width:1.60000002;stroke-linecap:round;stroke-linejoin:miter;stroke-miterlimit:4;stroke-dasharray:none;stroke-dashoffset:0;stroke-opacity:1;marker-end:"
     inkscape:connector-curvature="0" />
  <path
     id="path4884"
     d="m 232.81403,154.28052 0,73.3279"
     style="opacity:1;fill:#000000;fill-opacity:1;fill-rule:nonzero;stroke:#000000;stroke-width:1.60000002;stroke-linecap:round;stroke-linejoin:miter;stroke-miterlimit:4;stroke-dasharray:none;stroke-dashoffset:0;stroke-opacity:1;marker-end:"
     inkscape:connector-curvature="0" />
  <path
     id="path5032"
     d="m 60.883994,227.94832 224.216566,0"
     style="opacity:1;fill:#000000;fill-opacity:1;fill-rule:nonzero;stroke:#000000;stroke-width:1.60000002;stroke-linecap:round;stroke-linejoin:miter;stroke-miterlimit:4;stroke-dasharray:none;stroke-dashoffset:0;stroke-opacity:1;marker-end:"
     inkscape:connector-curvature="0" />
  <path
     d="m 72.441913,50.27672 c 0.001,3.3483 -2.7126,6.0634 -6.060899,6.0634 -3.3484,0 -6.0623,-2.7151 -6.061,-6.0634 -0.0013,-3.3483 2.7126,-6.0634 6.061,-6.0634 3.348299,0 6.062199,2.7151 6.060899,6.0634 l 0,0 z"
     id="path3102"
     style="fill:#ffffff;fill-opacity:1;stroke:#000000;stroke-width:1.5;stroke-miterlimit:4;stroke-dasharray:none;stroke-opacity:1;marker-end:"
     inkscape:connector-curvature="0" />
  <path
     d="m 72.441913,227.94832 c 0.001,3.3483 -2.7126,6.0633 -6.060899,6.0633 -3.3484,0 -6.0623,-2.715 -6.061,-6.0633 -0.0013,-3.3483 2.7126,-6.0634 6.061,-6.0634 3.348299,0 6.062199,2.7151 6.060899,6.0634 l 0,0 z"
     id="path3104"
     style="fill:#ffffff;fill-opacity:1;stroke:#000000;stroke-width:1.5;stroke-miterlimit:4;stroke-dasharray:none;stroke-opacity:1;marker-end:"
     inkscape:connector-curvature="0" />
  <path
     d="m 294.13992,50.27672 c 10e-4,3.3483 -2.7126,6.0634 -6.0609,6.0634 -3.3484,0 -6.0623,-2.7151 -6.061,-6.0634 -10e-4,-3.3483 2.7126,-6.0634 6.061,-6.0634 3.3483,0 6.0622,2.7151 6.0609,6.0634 l 0,0 z"
     id="path4872"
     style="fill:#ffffff;fill-opacity:1;stroke:#000000;stroke-width:1.5;stroke-miterlimit:4;stroke-dasharray:none;stroke-opacity:1;marker-end:"
     inkscape:connector-curvature="0" />
  <path
     d="m 294.13992,227.94832 c 10e-4,3.3483 -2.7126,6.0634 -6.0609,6.0634 -3.3484,0 -6.0623,-2.7151 -6.061,-6.0634 -10e-4,-3.3483 2.7126,-6.0634 6.061,-6.0634 3.3483,0 6.0622,2.7151 6.0609,6.0634 l 0,0 z"
     id="path4870"
     style="fill:#ffffff;fill-opacity:1;stroke:#000000;stroke-width:1.5;stroke-miterlimit:4;stroke-dasharray:none;stroke-opacity:1;marker-end:"
     inkscape:connector-curvature="0" />
  <g
     id="g6470"
     transform="translate(-33.409727,-25.684555)">
    <path
       style="opacity:1;fill:#000000;fill-opacity:1;fill-rule:nonzero;stroke:none;stroke-width:1.60000002;stroke-linecap:round;stroke-linejoin:miter;stroke-miterlimit:4;stroke-dasharray:none;stroke-dashoffset:0;stroke-opacity:1"
       d="m 72.21875,89.3125 c -0.402201,0.05703 -0.697829,0.406407 -0.6875,0.8125 0,0 3e-6,133.25345 0,135.53125 -0.02709,0.30176 0.118591,0.59294 0.376336,0.75219 0.257745,0.15924 0.583333,0.15924 0.841078,0 0.257745,-0.15925 0.403427,-0.45043 0.376336,-0.75219 3e-6,-2.27789 0,-135.53125 0,-135.53125 0.0057,-0.234089 -0.0914,-0.458931 -0.265752,-0.615243 -0.174347,-0.156311 -0.40842,-0.228399 -0.640498,-0.197257 z"
       id="path4111"
       inkscape:connector-curvature="0" />
    <path
       id="path6476"
       style="font-size:12px;fill-rule:evenodd;stroke-width:0.625;stroke-linejoin:round"
       d="m 65.222048,107.23247 7.071191,-19.229541 7.071189,19.229541 c -4.174827,-3.07207 -9.886716,-3.05437 -14.14238,0 z"
       inkscape:connector-curvature="0" />
  </g>
  <g
     id="g6478"
     transform="translate(-33.409727,-12.060177)">
    <path
       style="opacity:1;fill:#000000;fill-opacity:1;fill-rule:nonzero;stroke:none;stroke-width:1.60000002;stroke-linecap:round;stroke-linejoin:miter;stroke-miterlimit:4;stroke-dasharray:none;stroke-dashoffset:0;stroke-opacity:1"
       d="m 342.1875,75.71875 c -0.41464,0.04228 -0.72737,0.395797 -0.71875,0.8125 0,0 -10e-6,133.25325 0,135.53125 -0.0271,0.30176 0.11859,0.59294 0.37634,0.75219 0.25774,0.15924 0.58333,0.15924 0.84107,0 0.25775,-0.15925 0.40343,-0.45043 0.37634,-0.75219 -10e-6,-2.27768 0,-135.53125 0,-135.53125 0.005,-0.227986 -0.0884,-0.44708 -0.25551,-0.602244 -0.1671,-0.155164 -0.39246,-0.231654 -0.61949,-0.210256 l 0,0 z"
       id="path5951"
       inkscape:connector-curvature="0" />
    <path
       id="path6484"
       style="font-size:12px;fill-rule:evenodd;stroke-width:0.625;stroke-linejoin:round"
       d="m 335.1743,93.642408 7.07119,-19.229545 7.07119,19.229546 c -4.17483,-3.072077 -9.88672,-3.054376 -14.14238,-10e-7 z"
       inkscape:connector-curvature="0" />
  </g>
  <text
     sodipodi:linespacing="100%"
     x="137.32585"
     y="29.160156"
     id="text3316"
     xml:space="preserve"
     style="font-style:normal;font-weight:normal;font-size:40px;line-height:100%;font-family:'Bitstream Vera Sans';fill:#000000;fill-opacity:1;stroke:none;stroke-width:1px;stroke-linecap:butt;stroke-linejoin:miter;stroke-opacity:1"><tspan
       x="137.32585"
       y="29.160156"
       id="tspan3318"
       style="fill:#000000">R<tspan
   style="font-size:28px"
   id="tspan3320" /></tspan></text>
  <text
     sodipodi:linespacing="100%"
     x="172.93173"
     y="153.60783"
     id="text5956"
     xml:space="preserve"
     style="font-style:normal;font-weight:normal;font-size:40px;line-height:100%;font-family:'Bitstream Vera Sans';fill:#000000;fill-opacity:1;stroke:none;stroke-width:1px;stroke-linecap:butt;stroke-linejoin:miter;stroke-opacity:1"><tspan
       x="172.93173"
       y="153.60783"
       id="tspan5958"
       style="fill:#000000">C</tspan></text>
  <text
     sodipodi:linespacing="100%"
     x="318.05963"
     y="144.30154"
     id="text5968"
     xml:space="preserve"
     style="font-style:normal;font-weight:normal;font-size:40px;line-height:100%;font-family:'Bitstream Vera Sans';fill:#000000;fill-opacity:1;stroke:none;stroke-width:1px;stroke-linecap:butt;stroke-linejoin:miter;stroke-opacity:1"><tspan
       x="318.05963"
       y="144.30154"
       id="tspan5970"
       style="fill:#000000"><tspan
         id="tspan4251"
         style="font-style:italic;font-variant:normal;font-weight:normal;font-stretch:normal;font-size:36px;line-height:100%;font-family:Arial;-inkscape-font-specification:'Arial Italic';text-align:start;writing-mode:lr-tb;text-anchor:start">V</tspan><tspan
         style="font-size:64.99999762%;baseline-shift:sub"
         id="tspan5972">o</tspan></tspan></text>
  <text
     sodipodi:linespacing="100%"
     x="-3.1113281"
     y="144.46561"
     id="text5980"
     xml:space="preserve"
     style="font-style:normal;font-weight:normal;font-size:40px;line-height:100%;font-family:'Bitstream Vera Sans';fill:#000000;fill-opacity:1;stroke:none;stroke-width:1px;stroke-linecap:butt;stroke-linejoin:miter;stroke-opacity:1"><tspan
       x="-3.1113281"
       y="144.46561"
       id="tspan5982"
       style="fill:#000000"><tspan
         id="tspan4247"
         style="font-style:italic;font-variant:normal;font-weight:normal;font-stretch:normal;font-size:36px;line-height:100%;font-family:Arial;-inkscape-font-specification:'Arial Italic';text-align:start;writing-mode:lr-tb;text-anchor:start">V</tspan><tspan
         style="font-size:64.99999762%;baseline-shift:sub"
         id="tspan5984">i</tspan></tspan></text>
</svg>
