<?xml version="1.0" encoding="UTF-8" standalone="no"?>
<!-- Created with Inkscape (http://www.inkscape.org/) -->
<svg
   xmlns:svg="http://www.w3.org/2000/svg"
   xmlns="http://www.w3.org/2000/svg"
   version="1.0"
   width="420"
   height="376.76999"
   viewBox="0 0 1980 1765.996"
   id="svg2"
   xml:space="preserve"><defs
   id="defs342" />
	
		<g
   transform="matrix(0.952381,0,0,0.952381,47.14286,42.05479)"
   id="レイヤー_1">
			<g
   id="g7">
				<text
   transform="translate(312.5005,499.0063)"
   id="text9"><tspan
     x="0"
     y="0"
     style="font-size:100px;font-family:ArialMT"
     id="tspan11">HN</tspan></text>

				<polygon
   points="425.503,607.5 417.5,601.001 417.5,511.001 425.503,511.001 425.503,607.5 "
   id="polygon13" />
				<polygon
   points="535,374.502 534.004,370.498 537.5,367.002 672.002,397.5 676.504,407.002 535,374.502 "
   id="polygon15" />
				<polygon
   points="465.503,430.498 460.503,423.999 529.502,368.999 534.004,370.498 535,374.502 465.503,430.498 "
   id="polygon17" />
				<text
   transform="translate(698.0024,311.5063)"
   id="text19"><tspan
     x="0"
     y="0"
     style="font-size:100px;font-family:ArialMT"
     id="tspan21">O</tspan></text>

				<polygon
   points="876.504,245 878.501,236.001 990,325 990,335.498 876.504,245 "
   id="polygon23" />
				<polygon
   points="781.504,266.499 780,258.501 878.501,236.001 876.504,245 781.504,266.499 "
   id="polygon25" />
				<polygon
   points="676.504,407.002 672.002,397.5 711.001,317.5 718.003,321.001 676.504,407.002 "
   id="polygon27" />
				<text
   transform="translate(1066.501,196.0093)"
   id="text29"><tspan
     x="0"
     y="0"
     style="font-size:100px;font-family:ArialMT"
     id="tspan31">H</tspan></text>

				<text
   transform="translate(1066.501,279.4194)"
   id="text33"><tspan
     x="0"
     y="0"
     style="font-size:100px;font-family:ArialMT"
     id="tspan35">N</tspan></text>

				<polygon
   points="1240,276.001 1245.498,268.999 1307.5,397.5 1302.998,407.002 1240,276.001 "
   id="polygon37" />
				<polygon
   points="1144.502,253.999 1146.006,246.499 1245.498,268.999 1240,276.001 1144.502,253.999 "
   id="polygon39" />
				<polygon
   points="990,335.498 990,325 1054.502,273.501 1059.502,280 990,335.498 "
   id="polygon41" />
				<text
   transform="translate(1406.501,409.4976)"
   id="text43"><tspan
     x="0"
     y="0"
     style="font-size:100px;font-family:ArialMT"
     id="tspan45">O</tspan></text>

				<polygon
   points="1554.502,462.002 1558.506,460 1562.5,462.998 1562.5,601.001 1554.502,607.5 1554.502,462.002 "
   id="polygon47" />
				<polygon
   points="1481.504,403.999 1486.504,397.998 1558.506,455 1558.506,460 1554.502,462.002 1481.504,403.999 "
   id="polygon49" />
				<polygon
   points="1302.998,407.002 1307.5,397.5 1398.506,377.002 1400,385 1302.998,407.002 "
   id="polygon51" />
				<text
   transform="translate(1663.499,674.9995)"
   id="text53"><tspan
     x="0"
     y="0"
     style="font-size:100px;font-family:ArialMT"
     id="tspan55">NH</tspan></text>

				<polygon
   points="1757.002,766.001 1761.006,766.001 1763.506,770 1702.998,895.508 1694.502,895.508 1757.002,766.001 "
   id="polygon57" />
				<polygon
   points="1721.006,691.499 1727.998,687.998 1763.506,761.499 1761.006,766.001 1757.002,766.001 1721.006,691.499 "
   id="polygon59" />
				<polygon
   points="1554.502,607.5 1562.5,601.001 1657.002,622.5 1655.498,630.498 1554.502,607.5 "
   id="polygon61" />
				<text
   transform="translate(1721.998,1064.498)"
   id="text63"><tspan
     x="0"
     y="0"
     style="font-size:100px;font-family:ArialMT"
     id="tspan65">O</tspan></text>

				<polygon
   points="1696.006,1151.504 1701.504,1158.496 1562.5,1190.508 1554.502,1184.004 1696.006,1151.504 "
   id="polygon67" />
				<polygon
   points="1735,1070 1742.5,1073.496 1701.504,1158.496 1696.006,1151.504 1735,1070 "
   id="polygon69" />
				<polygon
   points="1694.502,895.508 1702.998,895.508 1744.502,981.504 1737.5,985 1694.502,895.508 "
   id="polygon71" />
				<text
   transform="translate(1523.002,1370)"
   id="text73"><tspan
     x="0"
     y="0"
     style="font-size:100px;font-family:ArialMT"
     id="tspan75">NH</tspan></text>

				<polygon
   points="1445,1416.504 1446.504,1425 1307.5,1393.496 1302.998,1384.004 1445,1416.504 "
   id="polygon77" />
				<polygon
   points="1511.006,1364.004 1516.006,1370 1446.504,1425 1445,1416.504 1511.006,1364.004 "
   id="polygon79" />
				<polygon
   points="1554.502,1184.004 1562.5,1190.508 1562.5,1286.992 1554.502,1286.992 1554.502,1184.004 "
   id="polygon81" />
				<text
   transform="translate(1204.001,1557.5)"
   id="text83"><tspan
     x="0"
     y="0"
     style="font-size:100px;font-family:ArialMT"
     id="tspan85">O</tspan></text>

				<polygon
   points="1103.506,1546.504 1102.5,1550.508 1097.998,1551.992 990,1465.996 990,1455.508 1103.506,1546.504 "
   id="polygon87" />
				<polygon
   points="1195.498,1525.508 1197.002,1533.008 1106.006,1554.004 1102.5,1550.508 1103.506,1546.504 1195.498,1525.508 "
   id="polygon89" />
				<polygon
   points="1302.998,1384.004 1307.5,1393.496 1266.504,1479.492 1259.004,1475.996 1302.998,1384.004 "
   id="polygon91" />
				<text
   transform="translate(841.9985,1589.498)"
   id="text93"><tspan
     x="0"
     y="0"
     style="font-size:100px;font-family:ArialMT"
     id="tspan95">N</tspan></text>

				<text
   transform="translate(841.9985,1672.924)"
   id="text97"><tspan
     x="0"
     y="0"
     style="font-size:100px;font-family:ArialMT"
     id="tspan99">H</tspan></text>

				<polygon
   points="739.502,1515 737.002,1518.496 732.002,1518.008 672.002,1393.496 676.504,1384.004 739.502,1515 "
   id="polygon101" />
				<polygon
   points="836.001,1536.992 834.004,1545 738.501,1523.008 737.002,1518.496 739.502,1515 836.001,1536.992 "
   id="polygon103" />
				<polygon
   points="990,1455.508 990,1465.996 922.002,1520 917.002,1514.004 990,1455.508 "
   id="polygon105" />
				<text
   transform="translate(495.0005,1460)"
   id="text107"><tspan
     x="0"
     y="0"
     style="font-size:100px;font-family:ArialMT"
     id="tspan109">O</tspan></text>

				<polygon
   points="425.503,1329.004 417.5,1333.008 417.5,1190.508 425.503,1184.004 425.503,1329.004 "
   id="polygon111" />
				<polygon
   points="500,1388.496 495,1395 417.5,1333.008 425.503,1329.004 500,1388.496 "
   id="polygon113" />
				<polygon
   points="676.504,1384.004 672.002,1393.496 578.501,1415 577.002,1406.992 676.504,1384.004 "
   id="polygon115" />
				<text
   transform="translate(172.5005,1194.007)"
   id="text117"><tspan
     x="0"
     y="0"
     style="font-size:100px;font-family:ArialMT"
     id="tspan119">HN</tspan></text>

				<polygon
   points="223.003,1025.508 214.004,1025.508 276.504,895.508 285.503,895.508 223.003,1025.508 "
   id="polygon121" />
				<polygon
   points="261.504,1105.508 254.502,1108.496 214.004,1025.508 223.003,1025.508 261.504,1105.508 "
   id="polygon123" />
				<polygon
   points="425.503,1184.004 417.5,1190.508 322.002,1168.496 324.004,1160.508 425.503,1184.004 "
   id="polygon125" />
				<text
   transform="translate(179.4985,804.9995)"
   id="text127"><tspan
     x="0"
     y="0"
     style="font-size:100px;font-family:ArialMT"
     id="tspan129">O</tspan></text>

				<polygon
   points="284.004,639.502 281.001,636.001 283.003,631.499 417.5,601.001 425.503,607.5 284.004,639.502 "
   id="polygon131" />
				<polygon
   points="242.002,726.499 235,722.998 276.504,637.002 281.001,636.001 284.004,639.502 242.002,726.499 "
   id="polygon133" />
				<polygon
   points="285.503,895.508 276.504,895.508 237.002,813.501 244.502,810 285.503,895.508 "
   id="polygon135" />
				<text
   transform="translate(950.9995,513.0073)"
   id="text137"><tspan
     x="0"
     y="0"
     style="font-size:100px;font-family:ArialMT"
     id="tspan139">O</tspan></text>

				<rect
   width="7.9980001"
   height="108.501"
   x="999.00403"
   y="320"
   id="rect141" /> 
				<rect
   width="7.9980001"
   height="108.501"
   x="973.00299"
   y="320"
   id="rect143" /> 
				<text
   transform="translate(1204.001,570.5073)"
   id="text145"><tspan
     x="0"
     y="0"
     style="font-size:100px;font-family:ArialMT"
     id="tspan147">O</tspan></text>

				<polygon
   points="1277.998,497.998 1271.006,494.502 1317.998,397.002 1325,400.498 1277.998,497.998 "
   id="polygon149" />
				
					<rect
   width="8.2770004"
   height="108.238"
   x="1270.613"
   y="381.88"
   transform="matrix(0.9061,0.423,-0.423,0.9061,304.0704,-498.2734)"
   id="rect151" /> 
				<text
   transform="translate(1406.998,732.4995)"
   id="text153"><tspan
     x="0"
     y="0"
     style="font-size:100px;font-family:ArialMT"
     id="tspan155">O</tspan></text>

				
					<rect
   width="8.1999998"
   height="108.541"
   x="1527.902"
   y="587.23102"
   transform="matrix(0.6098,0.7926,-0.7926,0.6098,1106.277,-963.8995)"
   id="rect157" /> 
				<polygon
   points="1476.006,658.501 1471.006,652.002 1556.006,584.502 1561.006,590.498 1476.006,658.501 "
   id="polygon159" />
				<text
   transform="translate(1515.999,934.498)"
   id="text161"><tspan
     x="0"
     y="0"
     style="font-size:100px;font-family:ArialMT"
     id="tspan163">O</tspan></text>

				<rect
   width="105"
   height="8.0080004"
   x="1600"
   y="904.492"
   id="rect165" /> 
				<rect
   width="105"
   height="7.9980001"
   x="1600"
   y="878.50098"
   id="rect167" /> 
				<text
   transform="translate(1406.998,1136.507)"
   id="text169"><tspan
     x="0"
     y="0"
     style="font-size:100px;font-family:ArialMT"
     id="tspan171">O</tspan></text>

				<polygon
   points="1474.004,1141.504 1479.004,1135 1561.006,1200.508 1556.006,1206.992 1474.004,1141.504 "
   id="polygon173" />
				<polygon
   points="1490,1121.504 1495,1115 1577.002,1180.508 1572.002,1186.504 1490,1121.504 "
   id="polygon175" />
				<text
   transform="translate(1204.001,1298.51)"
   id="text177"><tspan
     x="0"
     y="0"
     style="font-size:100px;font-family:ArialMT"
     id="tspan179">O</tspan></text>

				<polygon
   points="1250,1313.008 1257.002,1309.492 1302.002,1401.992 1294.502,1405.508 1250,1313.008 "
   id="polygon181" />
				<polygon
   points="1272.998,1301.504 1280.498,1298.008 1325,1390.996 1317.998,1394.492 1272.998,1301.504 "
   id="polygon183" />
				<text
   transform="translate(950.9995,1356.507)"
   id="text185"><tspan
     x="0"
     y="0"
     style="font-size:100px;font-family:ArialMT"
     id="tspan187">O</tspan></text>

				<rect
   width="7.9980001"
   height="101.992"
   x="973.00299"
   y="1369.004"
   id="rect189" /> 
				<rect
   width="7.9980001"
   height="101.992"
   x="999.00403"
   y="1369.004"
   id="rect191" /> 
				<text
   transform="translate(697.5005,1298.51)"
   id="text193"><tspan
     x="0"
     y="0"
     style="font-size:100px;font-family:ArialMT"
     id="tspan195">O</tspan></text>

				<polygon
   points="699.004,1299.004 706.504,1301.992 662.002,1394.492 655,1390.996 699.004,1299.004 "
   id="polygon197" />
				<polygon
   points="722.5,1310 729.502,1313.496 685,1405.508 678.003,1401.992 722.5,1310 "
   id="polygon199" />
				<text
   transform="translate(494.4985,1136.507)"
   id="text201"><tspan
     x="0"
     y="0"
     style="font-size:100px;font-family:ArialMT"
     id="tspan203">O</tspan></text>

				
					<rect
   width="7.8070002"
   height="103.552"
   x="442.10001"
   y="1099.474"
   transform="matrix(-0.6404,-0.768,0.768,-0.6404,-152.5411,2231.084)"
   id="rect205" /> 
				<polygon
   points="500,1135.996 505,1141.992 424.004,1206.992 419.004,1200.508 500,1135.996 "
   id="polygon207" />
				<text
   transform="translate(385.5024,934.498)"
   id="text209"><tspan
     x="0"
     y="0"
     style="font-size:100px;font-family:ArialMT"
     id="tspan211">O</tspan></text>

				<rect
   width="103.003"
   height="7.9980001"
   x="275"
   y="878.50098"
   id="rect213" /> 
				<rect
   width="103.003"
   height="8.0080004"
   x="275"
   y="904.492"
   id="rect215" /> 
				<text
   transform="translate(494.4985,732.4995)"
   id="text217"><tspan
     x="0"
     y="0"
     style="font-size:100px;font-family:ArialMT"
     id="tspan219">O</tspan></text>

				<polygon
   points="508.003,651.001 503.003,657.5 419.004,590.498 424.004,584.502 508.003,651.001 "
   id="polygon221" />
				<polygon
   points="491.504,671.499 486.504,677.5 403.003,611.001 408.003,604.502 491.504,671.499 "
   id="polygon223" />
				<text
   transform="translate(697.5005,570.5073)"
   id="text225"><tspan
     x="0"
     y="0"
     style="font-size:100px;font-family:ArialMT"
     id="tspan227">O</tspan></text>

				<polygon
   points="732.002,482.5 724.502,486.001 678.003,388.999 685,385.498 732.002,482.5 "
   id="polygon229" />
				
					<rect
   width="7.8239999"
   height="107.124"
   x="677.83801"
   y="393.43701"
   transform="matrix(0.8943,-0.4475,0.4475,0.8943,-127.9564,352.3051)"
   id="rect231" /> 
				<polygon
   points="1307.998,166.499 1331.504,185.498 1326.006,191.001 1304.004,173.501 1307.998,166.499 "
   id="polygon233" />
				<polygon
   points="1295,187.002 1314.502,202.5 1309.004,207.998 1291.006,193.501 1295,187.002 "
   id="polygon235" />
				<polygon
   points="1282.5,207.002 1297.998,219.502 1292.002,225.498 1277.998,213.999 1282.5,207.002 "
   id="polygon237" />
				<polygon
   points="1269.502,227.5 1281.006,236.499 1275.498,242.5 1265,233.999 1269.502,227.5 "
   id="polygon239" />
				<polygon
   points="1256.504,247.5 1264.004,253.501 1258.506,259.502 1252.5,254.502 1256.504,247.5 "
   id="polygon241" />
				<polygon
   points="890,117.002 919.502,123.501 917.002,131.001 889.004,125 890,117.002 "
   id="polygon243" />
				<polygon
   points="887.5,140.498 911.504,146.001 909.004,153.999 886.504,148.501 887.5,140.498 "
   id="polygon245" />
				<polygon
   points="884.502,164.502 904.004,168.999 901.504,176.499 883.501,172.5 884.502,164.502 "
   id="polygon247" />
				<polygon
   points="881.504,188.501 896.001,191.499 893.501,198.999 880.503,196.499 881.504,188.501 "
   id="polygon249" />
				<polygon
   points="879.004,212.002 888.501,214.502 885.503,222.002 878.003,220 879.004,212.002 "
   id="polygon251" />
				<polygon
   points="1787.5,1242.5 1764.004,1260.996 1759.502,1254.004 1782.002,1236.504 1787.5,1242.5 "
   id="polygon253" />
				<polygon
   points="1770.498,1225 1751.006,1240.508 1747.002,1234.004 1765,1219.492 1770.498,1225 "
   id="polygon255" />
				<polygon
   points="1753.506,1208.008 1737.998,1220.508 1734.004,1213.496 1747.998,1202.5 1753.506,1208.008 "
   id="polygon257" />
				<polygon
   points="1737.002,1190.996 1725.498,1200 1721.006,1193.496 1731.006,1185.508 1737.002,1190.996 "
   id="polygon259" />
				<polygon
   points="1720,1174.004 1712.5,1180 1707.998,1173.008 1714.502,1168.008 1720,1174.004 "
   id="polygon261" />
				<polygon
   points="1487.998,1538.008 1458.506,1544.492 1457.5,1536.504 1485,1530.508 1487.998,1538.008 "
   id="polygon263" />
				<polygon
   points="1480,1515 1456.006,1520.996 1455,1513.008 1477.5,1507.5 1480,1515 "
   id="polygon265" />
				<polygon
   points="1472.5,1492.5 1452.998,1496.992 1452.002,1489.004 1469.502,1485 1472.5,1492.5 "
   id="polygon267" />
				<polygon
   points="1464.502,1470 1450,1473.008 1449.004,1465 1462.002,1461.992 1464.502,1470 "
   id="polygon269" />
				<polygon
   points="1456.504,1446.992 1447.5,1449.492 1446.504,1441.504 1454.004,1439.492 1456.504,1446.992 "
   id="polygon271" />
				<polygon
   points="316.504,1398.008 303.501,1370.996 311.504,1368.496 323.501,1394.004 316.504,1398.008 "
   id="polygon273" />
				<polygon
   points="337.002,1385.508 326.504,1363.008 334.004,1360.508 344.004,1381.504 337.002,1385.508 "
   id="polygon275" />
				<polygon
   points="357.5,1373.008 349.004,1355 356.504,1352.5 364.502,1368.496 357.5,1373.008 "
   id="polygon277" />
				<polygon
   points="378.003,1360.508 371.504,1346.992 379.004,1344.492 385,1355.996 378.003,1360.508 "
   id="polygon279" />
				<polygon
   points="398.501,1347.5 394.004,1339.004 401.504,1335.996 405,1343.496 398.501,1347.5 "
   id="polygon281" />
				<polygon
   points="95,1040.508 95,1010.508 103.003,1010.996 103.003,1039.492 95,1040.508 "
   id="polygon283" />
				<polygon
   points="119.004,1038.008 119.004,1013.008 127.002,1013.496 127.002,1036.992 119.004,1038.008 "
   id="polygon285" />
				<polygon
   points="143.003,1035.508 143.003,1015.508 151.001,1016.504 151.001,1034.492 143.003,1035.508 "
   id="polygon287" />
				<polygon
   points="166.504,1032.5 166.504,1018.008 174.502,1019.004 174.502,1031.992 166.504,1032.5 "
   id="polygon289" />
				<polygon
   points="190.503,1030 190.503,1020.508 198.501,1021.504 198.501,1029.492 190.503,1030 "
   id="polygon291" />
				<polygon
   points="1045,54.502 1046.504,58.501 1047.5,62.002 908.003,105 910.503,96.001 1045,54.502 "
   id="polygon293" />
				<polygon
   points="801.504,6.001 804.004,2.998 807.002,0 910.503,96.001 908.003,105 801.504,6.001 "
   id="polygon295" />
				<polygon
   points="1475,177.998 1474.502,182.002 1473.506,185.498 1329.502,163.999 1335,157.002 1475,177.998 "
   id="polygon297" />
				<polygon
   points="1276.006,28.501 1280,27.002 1283.506,25.498 1335,157.002 1329.502,163.999 1276.006,28.501 "
   id="polygon299" />
				<polygon
   points="1929.502,1241.992 1930,1245.996 1930.498,1250 1791.006,1270.996 1785.498,1263.496 1929.502,1241.992 "
   id="polygon301" />
				<polygon
   points="1739.502,1402.5 1736.006,1400.996 1732.002,1399.492 1785.498,1263.496 1791.006,1270.996 1739.502,1402.5 "
   id="polygon303" />
				<polygon
   points="1616.006,1599.492 1615,1603.008 1613.506,1606.992 1478.506,1565.508 1476.504,1556.504 1616.006,1599.492 "
   id="polygon305" />
				<polygon
   points="1375,1661.504 1372.5,1658.496 1370,1655.508 1476.504,1556.504 1478.506,1565.508 1375,1661.504 "
   id="polygon307" />
				<polygon
   points="285.503,1536.992 281.504,1536.504 277.5,1535.996 288.003,1395.508 296.504,1391.504 285.503,1536.992 "
   id="polygon309" />
				<polygon
   points="171.504,1315.996 173.501,1312.5 176.001,1309.004 296.504,1391.504 288.003,1395.508 171.504,1315.996 "
   id="polygon311" />
				<polygon
   points="0,903.008 3.501,900.996 7.002,899.004 79.502,1025.508 70.503,1025.508 0,903.008 "
   id="polygon313" />
				<polygon
   points="7.002,1151.504 3.501,1149.492 0,1147.5 70.503,1025.508 79.502,1025.508 7.002,1151.504 "
   id="polygon315" />
				<polygon
   points="180,533.501 191.504,523.999 203.501,514.502 283.003,631.499 281.001,636.001 276.504,637.002 180,533.501 "
   id="polygon317" />
				<polygon
   points="486.504,229.502 502.002,230.498 516.001,222.998 537.5,367.002 534.004,370.498 529.502,368.999 486.504,229.502 "
   id="polygon319" />
				<polygon
   points="1681.006,384.502 1687.5,397.998 1694.004,411.499 1562.5,462.998 1558.506,460 1558.506,455 1681.006,384.502 "
   id="polygon321" />
				<polygon
   points="1909.004,750.498 1904.502,766.001 1909.004,781.001 1763.506,770 1761.006,766.001 1763.506,761.499 1909.004,750.498 "
   id="polygon323" />
				<polygon
   points="1085,1694.004 1070.498,1690.508 1056.006,1686.992 1097.998,1551.992 1102.5,1550.508 1106.006,1554.004 1085,1694.004 "
   id="polygon325" />
				<polygon
   points="657.002,1643.496 647.5,1630.996 633.003,1624.492 732.002,1518.008 737.002,1518.496 738.501,1523.008 657.002,1643.496 "
   id="polygon327" />
				<polygon
   points="505,1613.496 505.503,1609.492 506.001,1605.508 633.003,1624.492 647.5,1630.996 644.502,1634.492 505,1613.496 "
   id="polygon329" />
				<polygon
   points="703.501,1763.008 700,1764.492 696.001,1765.996 644.502,1634.492 647.5,1630.996 657.002,1643.496 703.501,1763.008 "
   id="polygon331" />
				<polygon
   points="364.004,192.002 365,187.998 366.001,184.502 501.001,226.001 502.002,230.498 486.504,229.502 364.004,192.002 "
   id="polygon333" />
				<polygon
   points="604.502,130 607.5,132.998 610,135.498 516.001,222.998 502.002,230.498 501.001,226.001 604.502,130 "
   id="polygon335" />
				<polygon
   points="1972.998,639.502 1976.504,641.499 1980,643.501 1909.502,766.001 1904.502,766.001 1909.004,750.498 1972.998,639.502 "
   id="polygon337" />
				<polygon
   points="1980,887.998 1976.504,890 1972.998,891.992 1909.004,781.001 1904.502,766.001 1909.502,766.001 1980,887.998 "
   id="polygon339" />
			</g>
		</g>
	</svg>